<svg id="b1c0fa48-b7cb-40cd-893a-3de80fb2955a" data-name="Layer 1" xmlns="http://www.w3.org/2000/svg" viewBox="0 0 438 238"><defs><style>.\31 ab31062-6027-494f-9722-a3b86e367064,.\34 f392cd8-791e-4cd2-a523-88d8b3813133{opacity:0.1;}.\37 c315242-beab-4e1d-bb08-5d96450a1d5c{fill:#976844;}.\31 7589d2a-8b98-4a68-809b-f9694bc81168{fill:#e9a975;}.\35 358a46f-cd39-454c-bcc9-dc90409f750a{fill:#d9995b;}.\34 f157e9f-5281-407c-a8c1-29dec7b78622{fill:#452c19;}.\31 ab31062-6027-494f-9722-a3b86e367064,.b32abaf7-c639-42cc-9131-8f399ef09c60{fill:#7a4e2c;}.\37 be4b143-e83a-4beb-95c2-5e15b862b8fa{fill:#f6be93;}.\34 7beb673-7fc3-435b-8679-4ff938190227{fill:#191009;}.\34 a64b3e4-681c-4fae-8f84-696a73ccfde0{fill:#ac7753;}.\35 bf9f1ad-3878-46ae-bb61-7067c5d52cff{fill:#885d3d;}.\37 32b3eb5-d67f-4d33-9565-ec1a9e28a0af{fill:#b68463;}.\37 be34267-8eb6-451b-a9d0-03457aa2f74a{fill:#fff;}.ba3fc398-3bbf-4bb9-bc8e-780a8e7a2ac0{fill:#bb3231;}.\30 b227eee-32e7-4f26-8de5-65c952820018{fill:#cd3636;}.\32 46dff6b-e3ac-4368-9ea3-c03fd76314d4{fill:#a42828;}.\36 14b9e90-ad49-4397-8d43-0727d61f1770{opacity:0.2;}.\35 5045a41-6295-41a1-8d65-2273edad7599{fill:none;stroke:#000;stroke-linecap:round;stroke-miterlimit:10;stroke-width:2px;}.\31 b299b5d-f3a6-4e29-84a1-88989717af70{fill:#b97d4a;}.\34 4968682-7f3f-4802-b7e5-b92c42e28826{fill:#966844;}.\36 7246431-ca75-4e7a-be14-2bf25269b10f{fill:#875d3d;}.\35 2841199-762a-48f7-9a63-c240106eea29{opacity:0.15;}.\36 ed7e0b0-6189-4ced-8a6f-bf703d1272d2{fill:#704c34;}.db3f73d0-d76d-48d1-acc4-f24760a8f040{fill:#865d45;}.\39 5a6b348-11fc-4b2b-9c5a-b25d37f998e2{fill:#c83f3f;}.f1f79011-3630-4cc7-88c0-588febe7bdd9{fill:#b13030;}</style></defs><title>saas</title><path class="4f392cd8-791e-4cd2-a523-88d8b3813133" d="M273.46,168.67c-24.94,0-47.94.92-67.08,2.46H200c-68.08,0-121.75,6.83-121.75,14.61s31.8,15.89,99.88,15.89c20.42,0,41.56-1,61.15-2.54q5.93,0.09,12.27.09c68.08,0,144.19-10.8,144.19-18.58S341.53,168.67,273.46,168.67Z"/><g id="be3f23a5-7972-4d4c-b8ba-dafbe2457512" data-name="Box"><g id="9e395d84-e131-471e-90b1-deda72f86b24" data-name="Box"><g id="817ee8f6-f6ce-4bcc-a608-ad066f28827b" data-name="Box"><rect id="386c9223-4386-4a3a-965b-d758d191a9f5" data-name="Shadow" class="7c315242-beab-4e1d-bb08-5d96450a1d5c" x="278.89" y="61.91" width="79.22" height="59.41" transform="translate(-0.22 0.76) rotate(-0.14)"/><rect id="a30fd979-804f-4cd6-be10-b430a6ea5f74" data-name="Folds" class="17589d2a-8b98-4a68-809b-f9694bc81168" x="278.89" y="61.33" width="79.22" height="59.41" transform="translate(-0.22 0.76) rotate(-0.14)"/><rect id="b8cbfd3e-193e-446e-a9e0-0d08966f222c" data-name="Body" class="5358a46f-cd39-454c-bcc9-dc90409f750a" x="279.47" y="61.33" width="78.06" height="59.41" transform="translate(-0.22 0.76) rotate(-0.14)"/></g><g id="aa192373-fccd-492b-8a2e-adf5e15df9c3" data-name="NPM"><path id="38ddd598-870d-44bc-9a63-bd48f999aa07" data-name="Rectangle 1" class="4f157e9f-5281-407c-a8c1-29dec7b78622" d="M301.35,86.14l34.28-.08,0,11.52-17.14,0v1.85l-7.61,0V97.63l-9.53,0Zm2,9.56h3.79V89.93H309v5.75h1.89l0-7.61-7.58,0,0,7.61h0ZM312.76,88l0,9.6h3.77V95.7h3.82l0-7.68Zm3.75,1.84h2v3.91h-2V89.87ZM322.28,88l0,7.61h3.79V89.89H328V95.6h1.89V89.91h1.9v5.69h1.9l0-7.61Z"/></g></g><g id="9e4e2151-7db7-4866-bb59-b4ba245b871b" data-name="Box Details"><g id="6f4d8c5b-a11b-4fb0-aa69-d29f17432d40" data-name="Packaging"><g id="51d8b0cb-ae64-45bc-b395-af271e580040" data-name="This Way Up"><g id="8fb75e2b-4f00-4a40-aadb-5f4ff01c9ad5" data-name="Arrows"><g id="7973a293-2459-4baf-9cc8-ba63df9040d6" data-name="Arrows"><polygon id="d3cc3a30-a8d7-4830-acc4-b85f65dc5a0e" data-name="Arrow" class="b32abaf7-c639-42cc-9131-8f399ef09c60" points="351.43 112.7 350.07 111.34 348.72 112.7 349.58 112.7 349.58 116.35 350.58 116.34 350.57 112.7 351.43 112.7"/><polygon id="7321dac7-5db6-448f-881d-f384b4fed3ef" data-name="Arrow" class="b32abaf7-c639-42cc-9131-8f399ef09c60" points="354.68 112.69 353.31 111.33 351.96 112.7 352.82 112.69 352.83 116.34 353.82 116.34 353.82 112.69 354.68 112.69"/></g><polygon id="6914f6be-9f16-42e8-b844-8873b9e8f47d" data-name="Line" class="b32abaf7-c639-42cc-9131-8f399ef09c60" points="355 117.06 349 117.07 349 116.8 355 116.79 355 117.06"/></g><path id="24df8205-1e8a-4bc9-a054-171a0ef7b73a" data-name="Border" class="b32abaf7-c639-42cc-9131-8f399ef09c60" d="M354.69,118.62h-6a1.45,1.45,0,0,1-1.46-1.45v-6a1.45,1.45,0,0,1,1.45-1.46h6a1.45,1.45,0,0,1,1.46,1.45v6A1.45,1.45,0,0,1,354.69,118.62Zm-6-8.26a0.87,0.87,0,0,0-.87.87v6a0.87,0.87,0,0,0,.87.87h6a0.87,0.87,0,0,0,.87-0.87v-6a0.87,0.87,0,0,0-.87-0.87h-6Z"/></g><g id="b70689af-2b20-4c1e-a38f-de52a26d501d" data-name="Barcode"><path class="b32abaf7-c639-42cc-9131-8f399ef09c60" d="M309.67,105.13l0,13.29-8.21,0,0-13.29,8.21,0m0.54-.54-9.3,0,0,14.37,9.3,0,0-14.37h0Z"/><polygon class="b32abaf7-c639-42cc-9131-8f399ef09c60" points="303 111.02 308 111 308 110.72 303 110.73 303 111.02"/><polygon class="b32abaf7-c639-42cc-9131-8f399ef09c60" points="303 111.49 308 111.47 308 111.41 303 111.42 303 111.49"/><polygon class="b32abaf7-c639-42cc-9131-8f399ef09c60" points="303 112.19 308 112.17 308 112.04 303 112.05 303 112.19"/><polygon class="b32abaf7-c639-42cc-9131-8f399ef09c60" points="303 111.78 308 111.76 308 111.57 303 111.59 303 111.78"/><rect class="b32abaf7-c639-42cc-9131-8f399ef09c60" x="302.64" y="112.45" width="5.88" height="0.56" transform="translate(-0.27 0.73) rotate(-0.14)"/><rect class="b32abaf7-c639-42cc-9131-8f399ef09c60" x="302.63" y="109.96" width="5.88" height="0.56" transform="translate(-0.26 0.73) rotate(-0.14)"/><polygon class="b32abaf7-c639-42cc-9131-8f399ef09c60" points="303 109.37 308 109.35 308 109.24 303 109.26 303 109.37"/><polygon class="b32abaf7-c639-42cc-9131-8f399ef09c60" points="303 107.2 308 107.19 308 107.05 303 107.06 303 107.2"/><rect class="b32abaf7-c639-42cc-9131-8f399ef09c60" x="302.63" y="107.53" width="5.88" height="0.43" transform="translate(-0.26 0.73) rotate(-0.14)"/><polygon class="b32abaf7-c639-42cc-9131-8f399ef09c60" points="303 109.8 308 109.78 308 109.65 303 109.66 303 109.8"/><rect class="b32abaf7-c639-42cc-9131-8f399ef09c60" x="302.62" y="106.22" width="5.88" height="0.57" transform="translate(-0.25 0.73) rotate(-0.14)"/><polygon class="b32abaf7-c639-42cc-9131-8f399ef09c60" points="303 108.35 308 108.34 308 108.15 303 108.17 303 108.35"/><polygon class="b32abaf7-c639-42cc-9131-8f399ef09c60" points="303 109.14 308 109.13 308 108.85 303 108.86 303 109.14"/><polygon class="b32abaf7-c639-42cc-9131-8f399ef09c60" points="303 113.54 308 113.53 308 113.39 303 113.41 303 113.54"/><rect class="b32abaf7-c639-42cc-9131-8f399ef09c60" x="302.64" y="113.87" width="5.88" height="0.43" transform="translate(-0.27 0.73) rotate(-0.14)"/><polygon class="b32abaf7-c639-42cc-9131-8f399ef09c60" points="303 114.69 308 114.68 308 114.5 303 114.51 303 114.69"/><polygon class="b32abaf7-c639-42cc-9131-8f399ef09c60" points="303 115.49 308 115.47 308 115.19 303 115.21 303 115.49"/><polygon class="b32abaf7-c639-42cc-9131-8f399ef09c60" points="303 115.71 308 115.7 308 115.59 303 115.6 303 115.71"/><polygon class="b32abaf7-c639-42cc-9131-8f399ef09c60" points="303 116.14 308 116.13 308 115.99 303 116 303 116.14"/><rect class="b32abaf7-c639-42cc-9131-8f399ef09c60" x="302.65" y="116.3" width="5.88" height="0.56" transform="translate(-0.28 0.73) rotate(-0.14)"/><polygon class="b32abaf7-c639-42cc-9131-8f399ef09c60" points="303 117.36 308 117.34 308 117.06 303 117.07 303 117.36"/></g><path id="6f740a81-eea5-4b1c-b759-5082e6b37079" data-name="Shipment Placeholder" class="b32abaf7-c639-42cc-9131-8f399ef09c60" d="M287,104.63h-1.16v0.58H287v-0.58h0Zm-2.32,0h-4v0.58h0l0,7.06h0.58l0-7.06h3.4v-0.58h0Zm-3.38,8.81h-0.58v1.16h0.58v-1.16h0Zm0,2.32h-0.58v3.32h0.58l7.72,0v-0.58l-7.72,0v-2.73h0Zm10.05,2.71h-1.16v0.58h1.16v-0.58h0Zm8.45-3.76h-0.58v3.74l-6.72,0v0.58l7.3,0v-4.32h0Zm0-2.32h-0.58v1.16h0.58v-1.16h0Zm0-7.79-11.62,0v0.58l11,0v6h0.58l0-6.63h0Z"/></g></g><g id="23deadd0-929f-4360-a50b-c223d943bd2f" data-name="Flap (Front)"><rect id="6a2d6ccb-2600-4d84-8e1a-49b586fba28c" data-name="Highlight" class="7be4b143-e83a-4beb-95c2-5e15b862b8fa" x="278.82" y="61.33" width="79.22" height="0.58" transform="translate(-0.15 0.76) rotate(-0.14)"/></g></g><g id="f13ef5bf-c5a6-47be-b882-a4d83677c3ad" data-name="Box"><g id="defe5d95-472c-49f5-a2c1-6ef2de66587c" data-name="Box"><g id="58f4fa41-e8ee-4611-92b3-909ae4a7b128" data-name="Box"><rect id="abe784e5-d1c9-4f69-bc0d-1c3fd8398ba9" data-name="Shadow" class="7c315242-beab-4e1d-bb08-5d96450a1d5c" x="316.54" y="121.84" width="79.22" height="59.41" transform="translate(-0.36 0.85) rotate(-0.14)"/><rect id="c95a9e91-7dd5-4e53-8ef3-03178a99255b" data-name="Folds" class="17589d2a-8b98-4a68-809b-f9694bc81168" x="316.54" y="121.25" width="79.22" height="59.41" transform="translate(-0.36 0.85) rotate(-0.14)"/><rect id="88ff8bba-58bf-4ab2-b51b-c0d697a36952" data-name="Body" class="5358a46f-cd39-454c-bcc9-dc90409f750a" x="317.12" y="121.25" width="78.06" height="59.41" transform="translate(-0.36 0.85) rotate(-0.14)"/></g><g id="c89390cb-f658-49ec-9176-8f00fda9852b" data-name="NPM"><path id="887df872-26fb-4aa3-a727-b995ceacdd43" data-name="Rectangle 1" class="4f157e9f-5281-407c-a8c1-29dec7b78622" d="M339,146.06l34.28-.08,0,11.52-17.14,0v1.85l-7.61,0v-1.85l-9.53,0Zm2,9.56h3.79v-5.75h1.9v5.75h1.89l0-7.61-7.58,0,0,7.61h0Zm9.44-7.67,0,9.6h3.77v-1.91H358l0-7.68Zm3.75,1.84h2v3.91h-2V149.8Zm5.78-1.86,0,7.61h3.79v-5.71h1.9v5.71h1.89v-5.69h1.9v5.69h1.9l0-7.61Z"/></g></g><g id="2650d926-6688-439d-8cab-5a134e5e779f" data-name="Box Details"><g id="4a001d24-7f0a-4c3c-8a26-b5a9f44d0eac" data-name="Packaging"><g id="9e37d8a7-4353-4f61-bb20-7dd0e73c31a6" data-name="This Way Up"><g id="2dbb574e-17b0-47aa-b98d-c6fe784f05bb" data-name="Arrows"><g id="56138a3a-8874-4d7a-baa6-ec67a6884d88" data-name="Arrows"><polygon id="30bc5b79-548a-45e6-96a9-6bdf7fa2a463" data-name="Arrow" class="b32abaf7-c639-42cc-9131-8f399ef09c60" points="389.08 172.62 387.72 171.27 386.37 172.63 387.23 172.63 387.24 176.27 388.23 176.27 388.22 172.63 389.08 172.62"/><polygon id="b2159ba1-f440-424e-a096-f0bbdd3571eb" data-name="Arrow" class="b32abaf7-c639-42cc-9131-8f399ef09c60" points="392.33 172.62 390.97 171.26 389.61 172.62 390.47 172.62 390.48 176.26 391.48 176.26 391.47 172.62 392.33 172.62"/></g><polygon id="dacb1157-6045-4296-9869-4f8995f5bfa6" data-name="Line" class="b32abaf7-c639-42cc-9131-8f399ef09c60" points="392 176.98 386 176.99 386 176.73 392 176.72 392 176.98"/></g><path id="c1977fa6-5c8e-49f0-8362-3d7b6a5a1ffc" data-name="Border" class="b32abaf7-c639-42cc-9131-8f399ef09c60" d="M392.34,178.55h-6a1.45,1.45,0,0,1-1.46-1.45v-6a1.45,1.45,0,0,1,1.45-1.46h6a1.45,1.45,0,0,1,1.46,1.45v6A1.45,1.45,0,0,1,392.34,178.55Zm-6-8.26a0.87,0.87,0,0,0-.87.87v6a0.87,0.87,0,0,0,.87.87h6a0.87,0.87,0,0,0,.87-0.87v-6a0.87,0.87,0,0,0-.87-0.87h-6Z"/></g><g id="0126f115-4004-4301-ad4a-1714cdc46b4d" data-name="Barcode"><path class="b32abaf7-c639-42cc-9131-8f399ef09c60" d="M347.32,165.06l0,13.29-8.21,0,0-13.29,8.21,0m0.54-.54-9.3,0,0,14.37,9.3,0,0-14.37h0Z"/><polygon class="b32abaf7-c639-42cc-9131-8f399ef09c60" points="340 170.94 346 170.93 346 170.64 340 170.66 340 170.94"/><polygon class="b32abaf7-c639-42cc-9131-8f399ef09c60" points="340 171.41 346 171.4 346 171.34 340 171.35 340 171.41"/><polygon class="b32abaf7-c639-42cc-9131-8f399ef09c60" points="340 172.11 346 172.1 346 171.96 340 171.98 340 172.11"/><polygon class="b32abaf7-c639-42cc-9131-8f399ef09c60" points="340 171.7 346 171.69 346 171.5 340 171.51 340 171.7"/><rect class="b32abaf7-c639-42cc-9131-8f399ef09c60" x="340.29" y="172.38" width="5.88" height="0.56" transform="translate(-0.41 0.82) rotate(-0.14)"/><rect class="b32abaf7-c639-42cc-9131-8f399ef09c60" x="340.28" y="169.89" width="5.88" height="0.56" transform="translate(-0.41 0.82) rotate(-0.14)"/><polygon class="b32abaf7-c639-42cc-9131-8f399ef09c60" points="340 169.29 346 169.28 346 169.17 340 169.18 340 169.29"/><polygon class="b32abaf7-c639-42cc-9131-8f399ef09c60" points="340 167.13 346 167.11 346 166.97 340 166.99 340 167.13"/><rect class="b32abaf7-c639-42cc-9131-8f399ef09c60" x="340.28" y="167.46" width="5.88" height="0.43" transform="translate(-0.4 0.82) rotate(-0.14)"/><polygon class="b32abaf7-c639-42cc-9131-8f399ef09c60" points="340 169.72 346 169.71 346 169.57 340 169.59 340 169.72"/><rect class="b32abaf7-c639-42cc-9131-8f399ef09c60" x="340.28" y="166.14" width="5.88" height="0.57" transform="translate(-0.4 0.82) rotate(-0.14)"/><polygon class="b32abaf7-c639-42cc-9131-8f399ef09c60" points="340 168.28 346 168.26 346 168.08 340 168.09 340 168.28"/><polygon class="b32abaf7-c639-42cc-9131-8f399ef09c60" points="340 169.07 346 169.06 346 168.78 340 168.79 340 169.07"/><polygon class="b32abaf7-c639-42cc-9131-8f399ef09c60" points="340 173.47 346 173.45 346 173.32 340 173.33 340 173.47"/><rect class="b32abaf7-c639-42cc-9131-8f399ef09c60" x="340.29" y="173.8" width="5.88" height="0.43" transform="translate(-0.42 0.82) rotate(-0.14)"/><polygon class="b32abaf7-c639-42cc-9131-8f399ef09c60" points="340 174.62 346 174.6 346 174.42 340 174.44 340 174.62"/><polygon class="b32abaf7-c639-42cc-9131-8f399ef09c60" points="340 175.41 346 175.4 346 175.12 340 175.13 340 175.41"/><polygon class="b32abaf7-c639-42cc-9131-8f399ef09c60" points="340 175.63 346 175.62 346 175.51 340 175.53 340 175.63"/><polygon class="b32abaf7-c639-42cc-9131-8f399ef09c60" points="340 176.06 346 176.05 346 175.91 340 175.93 340 176.06"/><rect class="b32abaf7-c639-42cc-9131-8f399ef09c60" x="340.3" y="176.23" width="5.88" height="0.56" transform="translate(-0.42 0.82) rotate(-0.14)"/><polygon class="b32abaf7-c639-42cc-9131-8f399ef09c60" points="340 177.28 346 177.27 346 176.98 340 177 340 177.28"/></g><path id="6648ea2b-f36c-4d63-9f62-14f94c7b6b11" data-name="Shipment Placeholder" class="b32abaf7-c639-42cc-9131-8f399ef09c60" d="M324.62,164.55h-1.16v0.58h1.16v-0.58h0Zm-2.32,0h-4v0.58h0l0,7.06h0.58l0-7.06h3.4v-0.58h0Zm-3.38,8.81h-0.58v1.16h0.58v-1.16h0Zm0,2.32h-0.58V179h0.58l7.72,0V178.4l-7.72,0v-2.73h0ZM329,178.4h-1.16V179H329V178.4h0Zm8.45-3.76h-0.58v3.74l-6.72,0V179l7.3,0v-4.32h0Zm0-2.32h-0.58v1.16h0.58v-1.16h0Zm0-7.79-11.62,0v0.58l11,0v6h0.58l0-6.63h0Z"/></g></g><g id="71b53a76-0d2a-4b12-b644-b5ecde3e279b" data-name="Flap (Front)"><rect id="aafe4c28-44d0-4125-90d1-696f739a28a3" data-name="Highlight" class="7be4b143-e83a-4beb-95c2-5e15b862b8fa" x="316.47" y="121.25" width="79.22" height="0.58" transform="translate(-0.29 0.85) rotate(-0.14)"/></g></g><g id="11e6c21c-18bb-4487-9e7f-1da4aadfc41e" data-name="Box"><g id="39420880-0510-4df9-b8a5-3c18596ad1d1" data-name="Box"><g id="fa4ead66-1af4-4350-876a-88226a92dd0e" data-name="Box"><rect id="52530d22-beb3-4984-9b2a-009e4a6165cc" data-name="Shadow" class="7c315242-beab-4e1d-bb08-5d96450a1d5c" x="237.17" y="122.04" width="79.22" height="59.41" transform="translate(-0.36 0.66) rotate(-0.14)"/><rect id="033bd070-6f75-408a-9d27-c0aae599e28f" data-name="Body" class="5358a46f-cd39-454c-bcc9-dc90409f750a" x="237.75" y="121.46" width="78.06" height="59.41" transform="translate(-0.36 0.66) rotate(-0.14)"/></g><g id="b8e4d963-2a5c-4639-ac74-67f07e17a376" data-name="NPM"><path id="ff4593dd-94ea-49a0-9cde-831826b0a86b" data-name="Rectangle 1" class="4f157e9f-5281-407c-a8c1-29dec7b78622" d="M259.63,146.26l34.28-.08,0,11.52-17.14,0v1.85l-7.61,0v-1.85l-9.53,0Zm2,9.56h3.79v-5.75h1.9v5.75h1.89l0-7.61-7.58,0,0,7.61h0Zm9.44-7.67,0,9.6h3.77v-1.91h3.82l0-7.68Zm3.75,1.84h2v3.91h-2V150Zm5.78-1.86,0,7.61h3.79V150h1.9v5.71h1.89V150h1.9v5.69H292l0-7.61Z"/></g></g><g id="a58bea5f-7b67-4e33-90e3-cec8e5310006" data-name="Box Details"><g id="d0c4e15e-9bcd-4b21-9c09-b3884230496d" data-name="Packaging"><g id="5db3a2d8-c91a-4611-b7bd-68bfe87dd42d" data-name="This Way Up"><g id="927090a5-0fbd-4c29-9813-149fe181dcd0" data-name="Arrows"><g id="850fbe48-0b82-4d83-a10d-67f61d20a5a4" data-name="Arrows"><polygon id="e41e4883-f1ca-4db9-9b6a-55b79f3ef06a" data-name="Arrow" class="b32abaf7-c639-42cc-9131-8f399ef09c60" points="309.71 172.82 308.35 171.47 306.99 172.83 307.85 172.83 307.86 176.47 308.86 176.47 308.85 172.83 309.71 172.82"/><polygon id="215ccf2e-7225-43ac-9094-137cb7cf034e" data-name="Arrow" class="b32abaf7-c639-42cc-9131-8f399ef09c60" points="312.95 172.82 311.59 171.46 310.24 172.82 311.1 172.82 311.11 176.47 312.1 176.46 312.1 172.82 312.95 172.82"/></g><polygon id="06060879-ba3d-43b2-b88a-c94728b36d7f" data-name="Line" class="b32abaf7-c639-42cc-9131-8f399ef09c60" points="313 177.18 307 177.2 307 176.93 313 176.92 313 177.18"/></g><path id="4cfd54b7-b57e-4dd4-a54c-a54abed72e12" data-name="Border" class="b32abaf7-c639-42cc-9131-8f399ef09c60" d="M313,178.75h-6a1.45,1.45,0,0,1-1.46-1.45v-6a1.45,1.45,0,0,1,1.45-1.46h6a1.45,1.45,0,0,1,1.46,1.45v6A1.45,1.45,0,0,1,313,178.75Zm-6-8.26a0.87,0.87,0,0,0-.87.87v6a0.87,0.87,0,0,0,.87.87h6a0.87,0.87,0,0,0,.87-0.87v-6a0.87,0.87,0,0,0-.87-0.87h-6Z"/></g><g id="e9bb5cac-0721-4452-8b9c-391ef8c1bebf" data-name="Barcode"><path class="b32abaf7-c639-42cc-9131-8f399ef09c60" d="M267.95,165.26l0,13.29-8.21,0,0-13.29,8.21,0m0.54-.54-9.3,0,0,14.37,9.3,0,0-14.37h0Z"/><polygon class="b32abaf7-c639-42cc-9131-8f399ef09c60" points="261 171.14 267 171.13 267 170.84 261 170.86 261 171.14"/><polygon class="b32abaf7-c639-42cc-9131-8f399ef09c60" points="261 171.62 267 171.6 267 171.54 261 171.55 261 171.62"/><polygon class="b32abaf7-c639-42cc-9131-8f399ef09c60" points="261 172.32 267 172.3 267 172.17 261 172.18 261 172.32"/><polygon class="b32abaf7-c639-42cc-9131-8f399ef09c60" points="261 171.9 267 171.89 267 171.7 261 171.71 261 171.9"/><rect class="b32abaf7-c639-42cc-9131-8f399ef09c60" x="260.92" y="172.58" width="5.88" height="0.56" transform="translate(-0.41 0.63) rotate(-0.14)"/><rect class="b32abaf7-c639-42cc-9131-8f399ef09c60" x="260.91" y="170.09" width="5.88" height="0.56" transform="translate(-0.41 0.63) rotate(-0.14)"/><polygon class="b32abaf7-c639-42cc-9131-8f399ef09c60" points="261 169.5 267 169.48 267 169.37 261 169.39 261 169.5"/><polygon class="b32abaf7-c639-42cc-9131-8f399ef09c60" points="261 167.33 267 167.31 267 167.18 261 167.19 261 167.33"/><rect class="b32abaf7-c639-42cc-9131-8f399ef09c60" x="260.9" y="167.66" width="5.88" height="0.43" transform="translate(-0.4 0.63) rotate(-0.14)"/><polygon class="b32abaf7-c639-42cc-9131-8f399ef09c60" points="261 169.93 267 169.91 267 169.78 261 169.79 261 169.93"/><rect class="b32abaf7-c639-42cc-9131-8f399ef09c60" x="260.9" y="166.35" width="5.88" height="0.57" transform="translate(-0.4 0.63) rotate(-0.14)"/><polygon class="b32abaf7-c639-42cc-9131-8f399ef09c60" points="261 168.48 267 168.47 267 168.28 261 168.29 261 168.48"/><polygon class="b32abaf7-c639-42cc-9131-8f399ef09c60" points="261 169.27 267 169.26 267 168.98 261 168.99 261 169.27"/><polygon class="b32abaf7-c639-42cc-9131-8f399ef09c60" points="261 173.67 267 173.66 267 173.52 261 173.53 261 173.67"/><rect class="b32abaf7-c639-42cc-9131-8f399ef09c60" x="260.92" y="174" width="5.88" height="0.43" transform="translate(-0.42 0.63) rotate(-0.14)"/><polygon class="b32abaf7-c639-42cc-9131-8f399ef09c60" points="261 174.82 267 174.81 267 174.62 261 174.64 261 174.82"/><polygon class="b32abaf7-c639-42cc-9131-8f399ef09c60" points="261 175.61 267 175.6 267 175.32 261 175.33 261 175.61"/><polygon class="b32abaf7-c639-42cc-9131-8f399ef09c60" points="261 175.84 267 175.82 267 175.71 261 175.73 261 175.84"/><polygon class="b32abaf7-c639-42cc-9131-8f399ef09c60" points="261 176.27 267 176.25 267 176.12 261 176.13 261 176.27"/><rect class="b32abaf7-c639-42cc-9131-8f399ef09c60" x="260.93" y="176.43" width="5.88" height="0.56" transform="translate(-0.42 0.63) rotate(-0.14)"/><polygon class="b32abaf7-c639-42cc-9131-8f399ef09c60" points="261 177.49 267 177.47 267 177.19 261 177.2 261 177.49"/></g><path id="22dbf97e-1f70-4424-bffe-6042a2e1b079" data-name="Shipment Placeholder" class="b32abaf7-c639-42cc-9131-8f399ef09c60" d="M245.25,164.75h-1.16v0.58h1.16v-0.58h0Zm-2.32,0h-4v0.58h0l0,7.06h0.58l0-7.06h3.4v-0.58h0Zm-3.38,8.81H239v1.16h0.58v-1.16h0Zm0,2.32H239v3.32h0.58l7.72,0v-0.58l-7.72,0v-2.73h0Zm10.05,2.71h-1.16v0.58h1.16V178.6h0Zm8.45-3.76h-0.58v3.74l-6.72,0v0.58l7.3,0v-4.32h0Zm0-2.32h-0.58v1.16h0.58v-1.16h0Zm0-7.79-11.62,0v0.58l11,0v6H258l0-6.63h0Z"/></g></g><g id="76965608-3140-409c-a3bc-bdc125db33e0" data-name="Flap (Front)"><rect id="4083914e-779a-4b72-9d5b-e487ecc4cb76" data-name="Highlight" class="7be4b143-e83a-4beb-95c2-5e15b862b8fa" x="237.1" y="121.46" width="79.22" height="0.58" transform="translate(-0.29 0.66) rotate(-0.14)"/></g></g><g id="4ccfa113-9b91-42b0-8dd2-dd6855deab08" data-name="Box"><g id="e8db7bcb-e63a-4ab3-9033-1cbf97ef17ed" data-name="Box"><g id="8018068f-1673-4651-a08b-943679c4e899" data-name="Box"><rect id="e918ddb5-c878-4924-a507-7d96f049e780" data-name="Shadow" class="7c315242-beab-4e1d-bb08-5d96450a1d5c" x="158.41" y="121.84" width="79.22" height="59.41" transform="translate(-0.36 0.47) rotate(-0.14)"/><rect id="d7526f1d-0395-45e8-97e8-6c9a34424431" data-name="Folds" class="17589d2a-8b98-4a68-809b-f9694bc81168" x="158.41" y="121.25" width="79.22" height="59.41" transform="translate(-0.36 0.47) rotate(-0.14)"/><rect id="6d40ed82-0048-47cf-b6fa-2d8bd9c5c1d6" data-name="Body" class="5358a46f-cd39-454c-bcc9-dc90409f750a" x="158.99" y="121.25" width="78.06" height="59.41" transform="translate(-0.36 0.47) rotate(-0.14)"/></g><g id="a46120fd-2daf-4ef5-9cde-b408d02015a9" data-name="NPM"><path id="9d586724-d49b-4b7d-a7db-a2b8a499a89b" data-name="Rectangle 1" class="47beb673-7fc3-435b-8679-4ff938190227" d="M180.87,146.06l34.28-.08,0,11.52-17.14,0v1.85l-7.61,0v-1.85l-9.53,0Zm2,9.56h3.79v-5.75h1.9v5.75h1.89l0-7.61-7.58,0,0,7.61h0Zm9.44-7.67,0,9.6h3.77v-1.91h3.82l0-7.68ZM196,149.8h2v3.91h-2V149.8Zm5.78-1.86,0,7.61h3.79v-5.71h1.9v5.71h1.89v-5.69h1.9v5.69h1.9l0-7.61Z"/></g></g><g id="6e31e389-c9ee-49d3-a2c8-2cb08848c9a8" data-name="Box Details"><g id="8ab4c68c-d238-45e1-910d-8d62015e08c0" data-name="Packaging"><g id="ca56d154-3332-4089-8c87-b9c1b81fb2b3" data-name="This Way Up"><g id="9556252e-a6f5-42b6-8b3e-681735f19d4b" data-name="Arrows"><g id="56c00cea-09cd-4bdb-ba0a-b91edaeebc4c" data-name="Arrows"><polygon id="b3dea3b5-95d5-42af-98b1-9db7535b8add" data-name="Arrow" points="230.95 172.62 229.59 171.27 228.23 172.63 229.09 172.63 229.1 176.27 230.1 176.27 230.09 172.63 230.95 172.62"/><polygon id="a310a52c-fe78-43ae-b80f-f42abe34f81f" data-name="Arrow" points="234.19 172.62 232.83 171.26 231.48 172.62 232.34 172.62 232.35 176.26 233.34 176.26 233.34 172.62 234.19 172.62"/></g><polygon id="3a2a0dec-97b9-458a-bda6-8f606a151296" data-name="Line" points="234 176.98 228 176.99 228 176.73 234 176.72 234 176.98"/></g><path id="6c4818da-effd-49e3-a284-7fdf6e8968ab" data-name="Border" d="M234.21,178.55h-6a1.45,1.45,0,0,1-1.46-1.45v-6a1.45,1.45,0,0,1,1.45-1.46h6a1.45,1.45,0,0,1,1.46,1.45v6A1.45,1.45,0,0,1,234.21,178.55Zm-6-8.26a0.87,0.87,0,0,0-.87.87v6a0.87,0.87,0,0,0,.87.87h6a0.87,0.87,0,0,0,.87-0.87v-6a0.87,0.87,0,0,0-.87-0.87h-6Z"/></g><g id="3d40a3e6-4aa2-4aac-b300-1ee6a6c7d34a" data-name="Barcode"><path d="M189.19,165.06l0,13.29-8.21,0,0-13.29,8.21,0m0.54-.54-9.3,0,0,14.37,9.3,0,0-14.37h0Z"/><polygon points="182 170.94 188 170.93 188 170.64 182 170.66 182 170.94"/><polygon points="182 171.41 188 171.4 188 171.34 182 171.35 182 171.41"/><polygon points="182 172.11 188 172.1 188 171.96 182 171.98 182 172.11"/><polygon points="182 171.7 188 171.69 188 171.5 182 171.51 182 171.7"/><rect x="182.16" y="172.38" width="5.88" height="0.56" transform="translate(-0.41 0.44) rotate(-0.14)"/><rect x="182.15" y="169.89" width="5.88" height="0.56" transform="translate(-0.41 0.44) rotate(-0.14)"/><polygon points="182 169.29 188 169.28 188 169.17 182 169.18 182 169.29"/><polygon points="182 167.13 188 167.11 188 166.97 182 166.99 182 167.13"/><rect x="182.15" y="167.46" width="5.88" height="0.43" transform="translate(-0.4 0.44) rotate(-0.14)"/><polygon points="182 169.72 188 169.71 188 169.57 182 169.59 182 169.72"/><rect x="182.14" y="166.14" width="5.88" height="0.57" transform="translate(-0.4 0.44) rotate(-0.14)"/><polygon points="182 168.28 188 168.26 188 168.08 182 168.09 182 168.28"/><polygon points="182 169.07 188 169.06 188 168.78 182 168.79 182 169.07"/><polygon points="183 173.47 188 173.45 188 173.32 183 173.33 183 173.47"/><rect x="182.16" y="173.8" width="5.88" height="0.43" transform="translate(-0.42 0.44) rotate(-0.14)"/><polygon points="183 174.62 188 174.6 188 174.42 183 174.44 183 174.62"/><polygon points="183 175.41 188 175.4 188 175.12 183 175.13 183 175.41"/><polygon points="183 175.63 188 175.62 188 175.51 183 175.53 183 175.63"/><polygon points="183 176.06 188 176.05 188 175.91 183 175.93 183 176.06"/><rect x="182.17" y="176.23" width="5.88" height="0.56" transform="translate(-0.42 0.44) rotate(-0.14)"/><polygon points="183 177.28 188 177.27 188 176.98 183 177 183 177.28"/></g><path id="4b81a193-ddaa-4423-9d69-969bf2934261" data-name="Shipment Placeholder" d="M166.49,164.55h-1.16v0.58h1.16v-0.58h0Zm-2.32,0h-4v0.58h0l0,7.06h0.58l0-7.06h3.4v-0.58h0Zm-3.38,8.81H160.2v1.16h0.58v-1.16h0Zm0,2.32h-0.58V179h0.58l7.72,0V178.4l-7.72,0v-2.73h0Zm10.05,2.71h-1.16V179h1.16V178.4h0Zm8.45-3.76h-0.58v3.74l-6.72,0V179l7.3,0v-4.32h0Zm0-2.32h-0.58v1.16h0.58v-1.16h0Zm0-7.79-11.62,0v0.58l11,0v6h0.58l0-6.63h0Z"/></g></g><g id="59c63437-a9af-45dc-b238-6919f0e72e34" data-name="Flap (Front)"><rect id="0c628ac3-7cc9-4bcb-900a-8f7c3bb13aba" data-name="Highlight" class="7be4b143-e83a-4beb-95c2-5e15b862b8fa" x="158.34" y="121.25" width="79.22" height="0.58" transform="translate(-0.29 0.47) rotate(-0.14)"/></g></g><g id="97b2e214-3bf5-4fed-9c88-125abe199ecb" data-name="Wombat Pile"><g id="48ebbe1f-7905-4f81-ad76-1e5d729e54c0" data-name="Wombat - Peek"><g id="edad1937-ba2b-4765-8873-8ff2c38791d9" data-name="Wombat - Peek"><g id="bad80def-ac81-4df0-8188-b53b46ec5886" data-name="Face"><g id="d5012616-2aed-40cb-92c0-d48ffabf50be" data-name="Face"><g id="cd77bf5d-8936-42dd-9047-b42c6029ca13" data-name="ears"><g id="c6db39fa-c909-4650-8b12-bcd379e5235f" data-name="ear"><path class="7c315242-beab-4e1d-bb08-5d96450a1d5c" d="M89.78,106.31l-1.16,6.31,6.26,2.15,6.34-3.82A32,32,0,0,0,89.78,106.31Z"/><path class="4a64b3e4-681c-4fae-8f84-696a73ccfde0" d="M89.78,107.47a31.12,31.12,0,0,1,10.5,4l0.94-.57a32,32,0,0,0-11.44-4.64l-1.16,6.31,0.2,0.07Z"/><polygon class="5bf9f1ad-3878-46ae-bb61-7067c5d52cff" points="90.03 113.11 88.61 112.62 89.78 106.31 93.43 111.91 90.03 113.11"/></g><g id="7cf3bd1c-875a-4dea-9007-3d753090a260" data-name="ear"><path class="7c315242-beab-4e1d-bb08-5d96450a1d5c" d="M62.14,135.11l6.25-1.42,2.41,6.16-3.55,6.5A32,32,0,0,1,62.14,135.11Z"/><path class="4a64b3e4-681c-4fae-8f84-696a73ccfde0" d="M62.75,135.48l5.9-1.13-0.26-.65-6.25,1.42a32,32,0,0,0,5.1,11.24h0A34.25,34.25,0,0,1,62.75,135.48Z"/><polygon class="5bf9f1ad-3878-46ae-bb61-7067c5d52cff" points="68.94 135.09 68.39 133.69 62.14 135.11 67.88 138.53 68.94 135.09"/></g></g><path id="3162dd23-3c35-4ba3-afa8-88a52203160f" data-name="head" class="7c315242-beab-4e1d-bb08-5d96450a1d5c" d="M117.5,113.58c-14.48-5.26-31.31-3.75-41.66,7s-11.16,27.66-5.3,41.91,18,25.95,18,25.95c24.67,3.11,59.71-33.43,55.59-57.93C144.17,130.53,132,118.84,117.5,113.58Z"/><path id="05591903-655c-45d3-a8e5-0c5e77555dc9" data-name="Highlight" class="4a64b3e4-681c-4fae-8f84-696a73ccfde0" d="M144.17,130.53S132,118.84,117.5,113.58s-31.31-3.75-41.66,7a31.36,31.36,0,0,0-7.47,13.18,16.38,16.38,0,0,0-.21,1.9,31.51,31.51,0,0,1,7.67-13.92c10.34-10.78,27.18-12.29,41.66-7s26.67,16.95,26.67,16.95C144.36,132.84,144.42,132,144.17,130.53Z"/><g id="323ce2d4-e135-4c7e-b076-d04cf11d1d9d" data-name="Face"><g id="b4c2fbe2-dcd8-4e18-9794-8fb8796c29a6" data-name="nose"><ellipse id="3b118e63-75ea-43ec-b5f2-ac954b7ba8a7" data-name="nose" class="4f392cd8-791e-4cd2-a523-88d8b3813133" cx="109.76" cy="152.02" rx="11.81" ry="5.71" transform="translate(-75.92 125.97) rotate(-46.18)"/><ellipse id="387d3a72-f05d-4533-b01c-9dcb11bc2c86" data-name="nose" cx="108.97" cy="151.25" rx="11.81" ry="5.71" transform="translate(-75.61 125.16) rotate(-46.18)"/></g><g id="6d4ec1fa-d14e-43a3-9973-55ef799a1d56" data-name="face"><g id="fe834ce2-05c9-44df-8576-11691b95bbcf" data-name="eyes"><g id="7c555119-60f0-4e0d-b0b7-4ca1f0ac3b03" data-name="eye"><path class="732b3eb5-d67f-4d33-9565-ec1a9e28a0af" d="M95.51,158.41c-2.35,2.45-6.06-1.11-3.71-3.56S97.87,156,95.51,158.41Z"/><path d="M92.95,155.27a1.92,1.92,0,0,1,2.78,2.66A1.92,1.92,0,0,1,92.95,155.27Z"/><path class="7be34267-8eb6-451b-a9d0-03457aa2f74a" d="M94.53,155.7a0.62,0.62,0,0,1-.86.9A0.62,0.62,0,0,1,94.53,155.7Z"/></g><g id="c7006c05-02aa-453e-8f96-f706d6684191" data-name="eye"><path class="732b3eb5-d67f-4d33-9565-ec1a9e28a0af" d="M112,137.5c2.45,2.35,6-1.36,3.56-3.71S109.56,135.14,112,137.5Z"/><path d="M115.13,134.93a1.92,1.92,0,0,1-2.66,2.78A1.92,1.92,0,0,1,115.13,134.93Z"/><path class="7be34267-8eb6-451b-a9d0-03457aa2f74a" d="M113.76,135.66a0.62,0.62,0,0,1-.86.9A0.62,0.62,0,0,1,113.76,135.66Z"/></g></g></g></g><path class="4f392cd8-791e-4cd2-a523-88d8b3813133" d="M93.17,183a56,56,0,0,0,14.56,1.35c-5.91,2.93-12.59,4.91-19.15,4.08-14.67-14.08-25.9-35.14-20.19-54.77C68.3,134.12,64,155.84,93.17,183Z"/></g><path id="ac2d3dbb-ddd7-47c6-a53d-6bc376dc334d" data-name="Shadow" class="4f392cd8-791e-4cd2-a523-88d8b3813133" d="M87,167.36h0a0.61,0.61,0,0,0-.73-0.34c-0.58.08-.13-0.37-1.95,0.16-5.45,1.58-7.21,3-7.61,6.85a94.18,94.18,0,0,0,11.84,14.44c7.49,0.95,15.74-1.77,23.76-6.69C107.51,174.42,97,165.94,87,167.36Z"/></g><g id="4bd9e981-9e8b-476a-94ea-543a72d656c9" data-name="Arm"><g id="34ab2d00-689d-40c0-9c03-b3fce3878d91" data-name="Sleeve"><g id="9ebb2df7-0342-4811-9934-a0a7755003d4" data-name="Sleeve"><path class="ba3fc398-3bbf-4bb9-bc8e-780a8e7a2ac0" d="M87.4,168.52a1.19,1.19,0,0,0-.93-0.34c-0.53.07-.26-0.45-2.78,0.39s-4.57,1.13-6.23,4-0.35,12.15.83,13.21,1.09,1.31,1.47,1.55,1.89,1.16,3,.89S87.4,168.52,87.4,168.52Z"/><path id="4f7872c5-6bb3-4e42-b29e-679596d7f36b" data-name="Highlight" class="0b227eee-32e7-4f26-8de5-65c952820018" d="M86.56,168.75c-0.53.07-.47-0.54-3,0.31s-4.37,1.22-6,4c-0.94,1.6-.93,5.29-0.52,8.38-0.48-3.19-.56-7.26.44-9,1.66-2.82,3.71-3.11,6.23-4s2.25-.32,2.78-0.39a1.19,1.19,0,0,1,.93.34l-0.08.44A1.09,1.09,0,0,0,86.56,168.75Z"/><g id="e364368d-8861-4117-bb75-16a423981e98" data-name="Shade"><path class="4f392cd8-791e-4cd2-a523-88d8b3813133" d="M85.68,168c0.37,0,.47,0,0.66,0h0c-2.91,0-6.27,3.42-6.27,3.42A10.11,10.11,0,0,1,85.68,168Z"/><path class="4f392cd8-791e-4cd2-a523-88d8b3813133" d="M78.29,185.73c-0.83-.75-1.72-5.6-1.6-9.39a16.1,16.1,0,0,0,.83,1.83A7.3,7.3,0,0,1,77.6,180c0.06,0.17.57-3.12,0.85-3.16,0,0,3.7,8,4.77,10.63a1.22,1.22,0,0,1-.43.67c-1.14.27-2.66-.65-3-0.89S79.46,186.78,78.29,185.73Z"/></g></g><g id="32c5898e-127e-4dd1-abde-79ed6e160fe6" data-name="Ring"><path id="04273fcb-0ed6-4240-9bec-c9bd1dd318a1" data-name="arm" class="246dff6b-e3ac-4368-9ea3-c03fd76314d4" d="M82.69,188.24c-2.95-.57-5.62-3.81-4.34-10.85,1.12-6.17,4.64-8.39,8.48-8.79C91.86,168.08,83.6,188.42,82.69,188.24Z"/><path id="de4a8a2f-2d0c-4573-a3c0-8e255012e2ef" data-name="Shade" class="4f392cd8-791e-4cd2-a523-88d8b3813133" d="M78.18,178.46l0.86,2s3.12,4.25,4.62,6.38a3.07,3.07,0,0,1-1,1.42C79.89,187.7,77.35,184.76,78.18,178.46Z"/></g></g><g id="aa20d1c8-a6ff-4188-a815-ec4055e81dcc" data-name="arm"><path id="74bb53ad-bffd-4f62-af91-fb46ac0f9391" data-name="arm" class="7c315242-beab-4e1d-bb08-5d96450a1d5c" d="M100.16,171.46c2.75,1.68,10.61,7.16,13.77,14-13.52,6.29-27.45,4.26-29.14,3.64-4.68-1.74-7-2.59-5.3-11.84C82.08,163,97.41,169.78,100.16,171.46Z"/><path id="989abfa7-cf1e-47e4-828b-74bb7ecbb731" data-name="Shadow" class="4f392cd8-791e-4cd2-a523-88d8b3813133" d="M84.8,189.07c-4.07-1.51-6.34-2.35-5.76-8.62,1.15,3.11,7.19,7.91,34.9,5C100.41,191.72,86.48,189.69,84.8,189.07Z"/><path id="2232d8d2-5264-49d5-b516-9ba4e2118344" data-name="Highlight" class="4a64b3e4-681c-4fae-8f84-696a73ccfde0" d="M100.32,172.61c-2.75-1.68-18.08-8.46-20.67,5.77a24.28,24.28,0,0,0-.51,5.95,19.28,19.28,0,0,1,.35-7.1c2.58-14.23,17.92-7.45,20.67-5.77s10.61,7.16,13.77,14h0C110.51,179.09,102.94,174.21,100.32,172.61Z"/></g></g></g><g id="980450dc-f8bb-4f23-9420-1cca8e0052a4" data-name="Shadow"><path id="bbf903ed-ce9f-4361-845e-23a25f338874" data-name="Shadow" class="614b9e90-ad49-4397-8d43-0727d61f1770" d="M144.17,130.53a92.1,92.1,0,0,0-10.28-8.19c-0.76.42-1.52,0.86-2.27,1.33l-4-2.28a29.56,29.56,0,0,0-3.23,8.11,43.89,43.89,0,0,0-6.45,8.36,3.29,3.29,0,0,0-1.72,2.57c-1.37,2.74-2.57,1.6-3.34,3.13s-3.64,1-3.88,3.87c-10.36,5.35-12.44,14.44-13,24.71-2.07,3.2-4,7.77-1.86,13.59-3.94-6.28-1.43,2.66-.11,4.2a54.4,54.4,0,0,0,19.87-4.5,20.22,20.22,0,0,0-2-3.32C130.51,171,147.07,147.79,144.17,130.53Z"/><path class="4f392cd8-791e-4cd2-a523-88d8b3813133" d="M136,123.82a77.05,77.05,0,0,0-18.49-10.24c-1-.35-1.92-0.65-2.9-0.94-1.66,1.21-3.86,2.75-3.86,2.75l23.86,10.76Z"/></g></g><g id="f4af621a-ced2-4db6-97e5-b76d49e5d033" data-name="Wombat - Sleeping"><g id="6fcc0a47-f2b2-4d41-89ad-917661e60da2" data-name="Wombat - Sleeping"><g id="abf8ec15-0114-49c9-8359-85e90d6d79b9" data-name="Face"><g id="a2a066ae-8435-4b6b-a141-c85945d8a339" data-name="Head"><g id="7433f77f-f85e-46c8-aa5a-e36278a92c8a" data-name="Ear"><path class="7c315242-beab-4e1d-bb08-5d96450a1d5c" d="M292.32,114.76l-4.91,4.13,3.47,5.64,7.33,1.08A32,32,0,0,0,292.32,114.76Z"/><path class="4a64b3e4-681c-4fae-8f84-696a73ccfde0" d="M292.19,115.91a31.88,31.88,0,0,1,5.6,9.63l0.41,0.06a32,32,0,0,0-5.89-10.85l-4.91,4.13,0.47,0.77Z"/></g><path id="b4dbcc26-f37e-474a-b177-f37b256ccc1f" data-name="head" class="7c315242-beab-4e1d-bb08-5d96450a1d5c" d="M309.1,138c-7.84-13.27-21.79-22.8-36.63-21s-26.19,14.27-30.72,29-2.56,31.49-2.56,31.49c17.07,18.08,67.35,12.13,79.73-9.41C318.92,168,316.94,151.25,309.1,138Z"/><path id="9d96a0a8-6b72-41e5-91d1-37883b798527" data-name="Shadow" class="4f392cd8-791e-4cd2-a523-88d8b3813133" d="M318.92,168s-1.74-14.69-8.39-27.45l-0.08-.16-0.1-.19a53.43,53.43,0,0,0-8.67-11.85l-0.52-.52,0,0A41.78,41.78,0,0,0,290,120l-0.44-.21-0.79-.35-1-.43-0.31-.12c1.13,0.56,20.34,10.61,24.37,49.49a56,56,0,0,1-7.7,12.43,45,45,0,0,0,7.37-4.55l0.06,0,0.44-.35A28.42,28.42,0,0,0,318.92,168Z"/><path id="5e8085eb-6150-4136-9a69-31ebca6068d6" data-name="Highlight" class="4a64b3e4-681c-4fae-8f84-696a73ccfde0" d="M242.91,147.09c4.53-14.72,15.89-27.24,30.72-29a31.92,31.92,0,0,1,17.43,3l0.1-.54a32.24,32.24,0,0,0-18.69-3.64c-14.83,1.75-26.19,14.27-30.72,29s-2.56,31.49-2.56,31.49c0.37,0.39.76,0.77,1.16,1.14C240.28,178,238.45,161.57,242.91,147.09Z"/><polygon class="5bf9f1ad-3878-46ae-bb61-7067c5d52cff" points="288 119.84 287.41 118.89 292.32 114.76 291.58 121.4 288 119.84"/></g><g id="2313f168-ffa0-4eff-bf80-d5a619b5df3d" data-name="Face"><g id="a3d6783a-0c4c-44cd-998a-ced1e4f10dc6" data-name="nose"><ellipse id="6ddff1dd-52a2-4b07-8cad-343ff241ca9c" data-name="nose" class="4f392cd8-791e-4cd2-a523-88d8b3813133" cx="290.32" cy="172.65" rx="11.81" ry="5.71" transform="translate(-18.23 35.2) rotate(-6.73)"/><ellipse id="70c62ec0-9dff-4079-b333-37290ef001ed" data-name="nose" cx="290.19" cy="171.55" rx="11.81" ry="5.71" transform="translate(-18.1 35.18) rotate(-6.73)"/></g><g id="d7e0149e-f8c4-4d01-b61b-6dcb59c78125" data-name="face"><g id="00ef26dc-a175-4f65-b889-482e91fb0ace" data-name="eyes"><g id="cb810889-bc73-4173-83ed-082a6a66a432" data-name="eye"><path class="732b3eb5-d67f-4d33-9565-ec1a9e28a0af" d="M275.26,168.53c-3.37.4-4-4.71-.6-5.11S278.64,168.13,275.26,168.53Z"/><path d="M275.27,164.47a1.83,1.83,0,0,1,2.09,1.5,1.91,1.91,0,1,1-3.77.41A1.82,1.82,0,0,1,275.27,164.47Z"/><path class="7be34267-8eb6-451b-a9d0-03457aa2f74a" d="M276.22,165.82A0.62,0.62,0,0,1,275,166,0.62,0.62,0,0,1,276.22,165.82Z"/></g><g id="adbd11b5-37bb-4b3b-8935-c81194f306e9" data-name="eye"><path class="732b3eb5-d67f-4d33-9565-ec1a9e28a0af" d="M301.29,162.87c0.4,3.37,5.5,2.77,5.11-.6S300.89,159.49,301.29,162.87Z"/><path class="55045a41-6295-41a1-8d65-2273edad7599" d="M305.32,162.87a1.92,1.92,0,0,1-3.82.45"/><path class="7be34267-8eb6-451b-a9d0-03457aa2f74a" d="M303.81,162.56a0.62,0.62,0,0,1-1.24.15A0.62,0.62,0,0,1,303.81,162.56Z"/></g><g id="c20e9e54-f994-4a15-a553-4b0b96447ebc" data-name="eye"><path class="732b3eb5-d67f-4d33-9565-ec1a9e28a0af" d="M277.52,165.86c0.16,3.39-5,3.63-5.14.24S277.37,162.46,277.52,165.86Z"/><path class="55045a41-6295-41a1-8d65-2273edad7599" d="M273.54,166.51a1.92,1.92,0,0,0,3.84-.18"/><path class="7be34267-8eb6-451b-a9d0-03457aa2f74a" d="M275,166a0.62,0.62,0,0,0,1.24-.06A0.62,0.62,0,0,0,275,166Z"/></g></g></g></g><g id="e2c70747-7ca5-4b5a-9123-d73218f3147d" data-name="Shadow"><path class="4f392cd8-791e-4cd2-a523-88d8b3813133" d="M312.92,163.85a2.25,2.25,0,0,0-1.23.47c-10.32.22-21.63,11.74-24.87,22.31,14-2.74,26.68-9.19,32.1-18.62,0,0-.17-1.4-0.59-3.69-0.72-.17-1.48-0.31-2.28-0.46A5.63,5.63,0,0,0,312.92,163.85Z"/><path class="4f392cd8-791e-4cd2-a523-88d8b3813133" d="M273.74,188.1c-3.14-9.44-9-15.05-12.62-19.08-4.56-5.14-4.59-2.39-9.45-2.92a2.24,2.24,0,0,0-1.18-.58,3.2,3.2,0,0,0-1.68-.34c-5.13,0-8.25.94-10,4.23,0,4.83.42,8,.42,8C246.49,185.16,259.86,188.49,273.74,188.1Z"/></g></g><g id="ec624efa-754f-41b1-b278-1411e4b2a05a" data-name="Arms"><g id="fbcd4d8e-beaa-4def-bc73-8afc88d42cef" data-name="Arm"><g id="803987d5-60d9-412e-8864-ab70c2da659a" data-name="Sleeve"><g id="bf68b00b-f9b9-4341-b7d9-6ab9715d17d9" data-name="Sleeve"><path class="ba3fc398-3bbf-4bb9-bc8e-780a8e7a2ac0" d="M312.16,165.52a1.19,1.19,0,0,1,.87-0.47c0.53,0,.19-0.48,2.81,0s4.69,0.48,6.72,3,2,12,1,13.19-0.9,1.45-1.23,1.74-1.71,1.42-2.88,1.31S312.16,165.52,312.16,165.52Z"/><path id="083f2b58-0db9-4ac7-8dd1-cb42b2553a78" data-name="Highlight" class="0b227eee-32e7-4f26-8de5-65c952820018" d="M313,165.63c0.53,0,.39-0.6,3-0.11s4.49,0.6,6.53,3.16c1.16,1.46,1.66,5.11,1.69,8.23,0-3.23-.46-7.26-1.69-8.81-2-2.57-4.11-2.57-6.72-3s-2.28,0-2.81,0a1.19,1.19,0,0,0-.87.47L312.3,166A1.09,1.09,0,0,1,313,165.63Z"/><g id="ab96f462-3cdc-4a8e-a7f1-fce614d81986" data-name="Shade"><path class="4f392cd8-791e-4cd2-a523-88d8b3813133" d="M313.81,164.85a2.77,2.77,0,0,0-.64.19h0c2.9-.24,6.68,2.47,6.68,2.47A10.27,10.27,0,0,0,313.81,164.85Z"/><path class="4f392cd8-791e-4cd2-a523-88d8b3813133" d="M323.59,181.3c0.72-.85.93-5.79,0.27-9.52a16.1,16.1,0,0,1-.57,1.93,7.3,7.3,0,0,0,.18,1.85c0,0.18-1-3-1.28-3,0,0-2.56,8.43-3.24,11.19a1.22,1.22,0,0,0,.52.61c1.17,0.11,2.54-1,2.88-1.31S322.57,182.51,323.59,181.3Z"/></g></g><g id="bfb4858a-0a88-4d82-90d6-b1ebd0694d45" data-name="Ring"><path id="e2121a99-a829-4cd4-a564-95ebdf667226" data-name="arm" class="246dff6b-e3ac-4368-9ea3-c03fd76314d4" d="M319.58,184.4c2.84-1,5-4.56,2.79-11.35-2-6-5.76-7.66-9.63-7.52C307.69,165.72,318.7,184.71,319.58,184.4Z"/><path id="41df2901-c719-48bb-aba3-905bfaf4cf1d" data-name="Shade" class="4f392cd8-791e-4cd2-a523-88d8b3813133" d="M322.68,174.09l-0.57,2.08s-2.5,4.65-3.68,7a3.07,3.07,0,0,0,1.16,1.27C322.27,183.47,324.38,180.21,322.68,174.09Z"/></g></g><g id="9b589831-1b0e-4903-88f2-302e27b8ffa2" data-name="arm"><path id="3bd21643-c69c-483a-b5f9-0a6295949301" data-name="arm" class="7c315242-beab-4e1d-bb08-5d96450a1d5c" d="M299.94,170.22c-2.49,2-9.5,8.57-11.69,15.75,14.27,4.34,27.78.39,29.36-.46,4.39-2.37,6.55-3.53,3.6-12.46C316.67,159.32,302.43,168.17,299.94,170.22Z"/><path id="e38d11fb-d8c0-49b0-832a-f59b43f87d3f" data-name="Shadow" class="4f392cd8-791e-4cd2-a523-88d8b3813133" d="M317.61,185.51c3.82-2.06,5.95-3.21,4.5-9.34-0.7,3.24-6,8.84-33.86,9.8C302.52,190.31,316,186.37,317.61,185.51Z"/><path id="614221c8-1c0a-4333-9444-0f2f554b6a71" data-name="Highlight" class="4a64b3e4-681c-4fae-8f84-696a73ccfde0" d="M299.94,171.38c2.49-2,16.73-10.9,21.27,2.83a24.28,24.28,0,0,1,1.34,5.82,19.28,19.28,0,0,0-1.34-7c-4.54-13.73-18.78-4.88-21.27-2.83s-9.5,8.57-11.69,15.75h0C290.76,179.22,297.57,173.33,299.94,171.38Z"/></g></g><g id="1a6e4c3c-9590-47e5-b3f7-3584e5a301f8" data-name="Arm"><g id="dbd15050-218a-44f2-8b64-221d2b671b7d" data-name="Sleeve"><g id="ba9de8bb-6641-4183-8744-99c9e2049d61" data-name="Sleeve"><path class="ba3fc398-3bbf-4bb9-bc8e-780a8e7a2ac0" d="M251.5,166.64a1.19,1.19,0,0,0-.82-0.55c-0.53-.05-0.14-0.5-2.79-0.28s-4.71,0-7,2.35-3.24,11.71-2.35,13,0.74,1.54,1.05,1.86,1.56,1.58,2.73,1.59S251.5,166.64,251.5,166.64Z"/><path id="3f7406c7-22b1-40a6-88a4-8ea0612cbe19" data-name="Highlight" class="0b227eee-32e7-4f26-8de5-65c952820018" d="M250.62,166.66c-0.53-.05-0.32-0.63-3-0.42s-4.53.14-6.82,2.49c-1.3,1.33-2.16,4.92-2.51,8,0.3-3.21,1.19-7.18,2.57-8.59,2.29-2.35,4.35-2.14,7-2.35s2.26,0.23,2.79.28a1.19,1.19,0,0,1,.82.55l-0.18.41A1.09,1.09,0,0,0,250.62,166.66Z"/><g id="95e87dd0-601c-4c8e-a804-a8f9a2df7055" data-name="Shade"><path class="4f392cd8-791e-4cd2-a523-88d8b3813133" d="M249.93,165.8a2.77,2.77,0,0,1,.62.25h0c-2.87-.53-6.9,1.78-6.9,1.78A10.27,10.27,0,0,1,249.93,165.8Z"/><path class="4f392cd8-791e-4cd2-a523-88d8b3813133" d="M238.53,181.18c-0.63-.92-0.34-5.85.69-9.5a16.1,16.1,0,0,0,.37,2,7.3,7.3,0,0,1-.37,1.82c0,0.18,1.3-2.89,1.58-2.86,0,0,1.69,8.64,2.09,11.46a1.22,1.22,0,0,1-.58.55c-1.17,0-2.43-1.27-2.73-1.59S239.42,182.48,238.53,181.18Z"/></g></g><g id="da127d60-29f0-4f8c-9926-cd5ef4f19215" data-name="Ring"><path id="264ef207-3531-4943-b233-6d47779e828e" data-name="arm" class="246dff6b-e3ac-4368-9ea3-c03fd76314d4" d="M242.2,184.67c-2.72-1.26-4.55-5-1.63-11.57,2.56-5.72,6.51-7,10.34-6.51C255.92,167.28,243.05,185.06,242.2,184.67Z"/><path id="6018d967-072a-4bc4-9ce0-a49ce816067b" data-name="Shade" class="4f392cd8-791e-4cd2-a523-88d8b3813133" d="M240.17,174.1l0.36,2.13s2,4.87,3,7.3a3.07,3.07,0,0,1-1.28,1.15C239.62,183.47,237.86,180,240.17,174.1Z"/></g></g><g id="5c7fb255-d44e-45d3-ab38-9090f04fad27" data-name="arm"><path id="c8b21ac2-f618-4bbe-afef-f8908d6a24b9" data-name="arm" class="7c315242-beab-4e1d-bb08-5d96450a1d5c" d="M263.18,172.55c2.27,2.29,8.59,9.49,10,16.85-14.63,2.87-27.68-2.42-29.16-3.43-4.13-2.8-6.16-4.18-2.32-12.76C247.64,160,260.91,170.26,263.18,172.55Z"/><path id="e4753573-7699-4cff-8f31-e08722dfba30" data-name="Shadow" class="4f392cd8-791e-4cd2-a523-88d8b3813133" d="M244.06,186c-3.59-2.44-5.59-3.8-3.53-9.74,0.37,3.3,5.09,9.4,32.7,13.17C258.58,192.27,245.54,187,244.06,186Z"/><path id="c5f6d490-cb30-445c-aac0-ff526e15472d" data-name="Highlight" class="4a64b3e4-681c-4fae-8f84-696a73ccfde0" d="M263.07,173.7c-2.27-2.29-15.54-12.54-21.45.67A24.28,24.28,0,0,0,239.7,180a19.28,19.28,0,0,1,2-6.81c5.91-13.2,19.18-3,21.45-.67s8.59,9.49,10,16.85h0C271.41,182.43,265.23,175.88,263.07,173.7Z"/></g></g></g></g><path id="70ba9109-9fb5-47c4-b534-7b20b762d9e5" data-name="Shadow" class="614b9e90-ad49-4397-8d43-0727d61f1770" d="M272,133.43A31.52,31.52,0,0,0,275,122l-6.4-.41h0a33.67,33.67,0,0,0-1.86-3.41c-11.49,3.74-20.83,14.22-25,27.71-4,13-2.61,25.48-3.11,28.37-0.45,2.62-.59,5.53-0.22,6.61l1.17,2.12a4.88,4.88,0,0,0,2.47,1.56l0.15,0.08a26.74,26.74,0,0,0,2.26,1.54,35.39,35.39,0,0,0,6.81,2.37,16.91,16.91,0,0,0,2.66-1.32h0l0.15-.06a4.28,4.28,0,0,0,2.19-1c1-.77.35-0.52,1.66-2.08,0.77-.92.69-5.33,0.6-6.78C267.52,164.87,273.94,148.65,272,133.43Z"/></g><g id="ea62b96d-dea0-47c3-af80-74d0d39a9418" data-name="Wombat - Box"><g id="6156cdc6-decf-4b83-b216-ec95c7796271" data-name="Wombat - Box"><g id="d8e941a6-c310-4572-819e-daa6d8b8ef27" data-name="Flap (Back)"><g id="3889c509-68e0-4653-94ca-694cd05a9abc" data-name="Flap"><polygon id="b59bcf55-90de-4a3d-844a-c7df233ed2a9" data-name="Shadow" class="5358a46f-cd39-454c-bcc9-dc90409f750a" points="188.01 89.17 204.28 87.08 229.3 105.57 209 108.17 188.01 89.17"/><polygon id="270104b0-374d-411e-a010-09636845c0d9" data-name="Flap" class="1b299b5d-f3a6-4e29-84a1-88989717af70" points="187.43 89.69 203.7 87.6 228.72 106.09 208.42 108.69 187.43 89.69"/></g></g><g id="e19878ee-e987-4f0b-943e-182541012c04" data-name="Face"><g id="2cb13d12-5bc1-4782-804d-8afc3d1f9ca7" data-name="ears"><g id="15d17fb0-9f96-4998-b020-112f10f37092" data-name="ear"><path class="7c315242-beab-4e1d-bb08-5d96450a1d5c" d="M183.13,64.67l-4.29,4.77,4.21,5.1,7.41,0.05A32,32,0,0,0,183.13,64.67Z"/><polygon class="5bf9f1ad-3878-46ae-bb61-7067c5d52cff" points="179.8 70.59 178.84 69.44 183.13 64.67 183.32 71.35 179.8 70.59"/></g><g id="95ea4232-5964-4208-9c44-1c8596bf4d2b" data-name="ear"><path class="7c315242-beab-4e1d-bb08-5d96450a1d5c" d="M144.52,74.8l6.08,2.05-1.17,6.51L143,87A32,32,0,0,1,144.52,74.8Z"/><polygon class="5bf9f1ad-3878-46ae-bb61-7067c5d52cff" points="150.33 78.33 150.59 76.85 144.52 74.8 147.63 80.72 150.33 78.33"/></g></g><path id="1d911adc-de35-46ae-8b78-ad735708eb98" data-name="head" class="7c315242-beab-4e1d-bb08-5d96450a1d5c" d="M203,85.34c-9.6-12-24.75-19.55-39.2-15.76s-24,17.77-26.4,33,1.84,31.54,1.84,31.54c19.41,15.53,68.38,2.67,77.66-20.39C216.87,113.72,212.58,97.39,203,85.34Z"/><g id="7c87f873-a544-47f8-8448-f1af2142d5b4" data-name="nose"><ellipse id="2c4d2102-d69c-4bbc-8c5a-ea71c19b63b1" data-name="nose" class="5bf9f1ad-3878-46ae-bb61-7067c5d52cff" cx="175.81" cy="115.39" rx="11.81" ry="5.71" transform="translate(-23.54 48.42) rotate(-14.71)"/><ellipse id="3065d677-7a00-40ec-972e-370c2d40c8ae" data-name="nose" cx="175.53" cy="114.32" rx="11.81" ry="5.71" transform="translate(-23.28 48.32) rotate(-14.71)"/></g><g id="13fbc4bc-d70e-41b6-99da-13818703e285" data-name="face"><g id="7dd3a412-f997-4ca4-93ba-ae116e334dc9" data-name="eyes"><g id="4d3de5d3-7f4c-4952-954d-4e146cfb2dd1" data-name="eye"><path class="732b3eb5-d67f-4d33-9565-ec1a9e28a0af" d="M160.31,113.4c-3.29.86-4.59-4.11-1.31-5S163.6,112.54,160.31,113.4Z"/><path d="M159.76,109.38a1.92,1.92,0,0,1,1,3.72A1.92,1.92,0,0,1,159.76,109.38Z"/><path class="7be34267-8eb6-451b-a9d0-03457aa2f74a" d="M160.89,110.58a0.62,0.62,0,0,1-1.2.32A0.62,0.62,0,0,1,160.89,110.58Z"/></g><g id="608a6649-6dcb-487f-bf79-838bbc1713f1" data-name="eye"><path class="732b3eb5-d67f-4d33-9565-ec1a9e28a0af" d="M185.31,104.18c0.86,3.28,5.84,2,5-1.31S184.44,100.89,185.31,104.18Z"/><path d="M189.3,103.62a1.92,1.92,0,0,1-3.72,1A1.92,1.92,0,0,1,189.3,103.62Z"/><path class="7be34267-8eb6-451b-a9d0-03457aa2f74a" d="M187.76,103.53a0.62,0.62,0,0,1-1.2.32A0.62,0.62,0,0,1,187.76,103.53Z"/></g></g></g></g></g><path id="cb055550-f575-476f-a48f-4096a67adbe6" data-name="Shadow" class="614b9e90-ad49-4397-8d43-0727d61f1770" d="M218.81,107.36l-3.83.49c1.28,3.54,1.89,5.86,1.89,5.86-2.73,6.78-8.9,12.69-16.74,17.24-0.49-.6-1-1.26-1.5-2a37.41,37.41,0,0,1-7.25-12.31,1.33,1.33,0,0,1,.26-1.4,14.37,14.37,0,0,1-.26-1.72v0.91c-0.06-.91-0.08-1.12-0.1-1.56,0,0,0-.06,0,0-0.31-8.06,5-19.94,12.78-27.05,0.17,0.7.3,1.18,0.36,1.42L219,98C219.11,101.18,219,104.36,218.81,107.36ZM187.4,136.7a46.43,46.43,0,0,0-12.61-13.29,27.54,27.54,0,0,0-3.46-5.8l-3,2.24c-11.4-5-20.74-5-31.26,1.7h0a91.49,91.49,0,0,0,2.12,12.55C150.07,142.79,170.17,142.59,187.4,136.7Z"/><polygon id="f460fc2f-24ff-4b4f-9249-1618ffbb0743" data-name="Shadow" class="4f392cd8-791e-4cd2-a523-88d8b3813133" points="204.42 87.28 143.71 122.19 139.21 120.61 204.42 87.28"/></g><g id="7f44588d-9698-4a7b-a1ab-b28bc816d6b1" data-name="Wombat - Bum"><g id="262182df-cc38-4ba4-ada6-834a19d883af" data-name="Head"><g id="8d5e1a65-4399-42e5-8082-2dd0dc762bfe" data-name="Ears"><g id="39ac7d58-2493-4c18-8cdb-6c76926d98a7" data-name="ear"><path class="44968682-7f3f-4802-b7e5-b92c42e28826" d="M129.38,121.39l5.78,3.3-2.49,6.4-7.28,2.47A33.19,33.19,0,0,1,129.38,121.39Z"/><path id="90a83195-4eec-4102-99de-a2a0e18dbdc4" data-name="Highlight" class="4a64b3e4-681c-4fae-8f84-696a73ccfde0" d="M129.82,121.64l-0.43-.25a33.19,33.19,0,0,0-4,12.18l0.6-.21A33.27,33.27,0,0,1,129.82,121.64Z"/><polygon class="67246431-ca75-4e7a-be14-2bf25269b10f" points="134.6 126.15 135.16 124.69 129.38 121.39 131.37 128.04 134.6 126.15"/></g><g id="0ce97fa2-9b99-4629-b7e2-a635b5eefd65" data-name="ear"><path class="44968682-7f3f-4802-b7e5-b92c42e28826" d="M170.75,118.77l-5.32,4,3.28,6,7.54,1.54A33.19,33.19,0,0,0,170.75,118.77Z"/><path id="66023734-d4fc-4e27-a7ec-a8b331d1a355" data-name="Highlight" class="4a64b3e4-681c-4fae-8f84-696a73ccfde0" d="M175.63,130.23l0.61,0.12a33.19,33.19,0,0,0-5.49-11.58l-0.37.28A33.36,33.36,0,0,1,175.63,130.23Z"/><polygon class="67246431-ca75-4e7a-be14-2bf25269b10f" points="166.18 124.15 165.43 122.78 170.75 118.77 169.62 125.62 166.18 124.15"/></g></g><g id="c5ad0b5f-030d-4940-a9b6-01b6c595f066" data-name="Head"><path id="cfbc67bd-3bb5-46f5-842d-c76b9535b9b4" data-name="head" class="44968682-7f3f-4802-b7e5-b92c42e28826" d="M117,143.06c5.64-13.23,18.21-24.16,33.69-25.14s29.33,8.28,36.59,20.7S195,157.68,195,157.68s-7.58,23-40.18,25.09-43-19.83-43-19.83S111.4,156.29,117,143.06Z"/><path id="f540ae5c-2587-409e-a9af-449c3a80111b" data-name="Highlight" class="4a64b3e4-681c-4fae-8f84-696a73ccfde0" d="M150.16,119.08c15.48-1,29.33,8.28,36.59,20.7s7.69,19.07,7.69,19.07a17.84,17.84,0,0,1-.76,1.81,21.81,21.81,0,0,0,1.34-3s-0.43-6.66-7.69-19.07-21.11-21.68-36.59-20.7c-14.78.94-26.9,10.95-32.88,23.36C124,129.4,135.84,120,150.16,119.08Z"/></g></g><g id="6339e227-20ef-4ecd-8543-c097b49d2ac5" data-name="Bottom"><g id="fd633d53-cf38-42b2-adc2-7b02a7be4060" data-name="Left Leg"><g id="3f52e650-6214-4513-bcc9-ea6fb46e34dd" data-name="Leg"><path class="67246431-ca75-4e7a-be14-2bf25269b10f" d="M111.09,187.22l-6.82-21.35c-0.33.16-13.31,6.31-8.34,19.87,0,0-2.8-2.87-3.8-3s3,7,4,7.39c0.79,0.27,6.54-.29,11.66-1.73A23.65,23.65,0,0,0,111.09,187.22Z"/><path class="4a64b3e4-681c-4fae-8f84-696a73ccfde0" d="M104.51,166.62l-0.24-.75c-0.33.16-13.31,6.31-8.34,19.87l0,0,0.38,0.75h0C91.72,174,102.45,167.7,104.51,166.62Z"/><path class="52841199-762a-48f7-9a63-c240106eea29" d="M107.75,188.43a23.65,23.65,0,0,0,3.34-1.22l-6.82-21.35a16.91,16.91,0,0,0-2,1.15l-3.94,4.17s-4.5,9.55,1.14,18.86A54.6,54.6,0,0,0,107.75,188.43Z"/></g><g id="a650014c-fe35-4696-af6a-2d0a01fd75a2" data-name="Foot"><path class="6ed7e0b0-6189-4ced-8a6f-bf703d1272d2" d="M95.88,185.69c-0.34-.35-2.83-2.84-3.76-2.91s3,7,4,7.39a6.4,6.4,0,0,0,1.71,0A27.45,27.45,0,0,0,95.88,185.69Z"/><path class="db3f73d0-d76d-48d1-acc4-f24760a8f040" d="M92.12,182.78c-1-.08,2.75,6.64,3.88,7.34-1.47-1.81-4.14-6.83-3.3-6.76,1,0.08,3.53,3,3.56,3.08l-0.38-.75C95.54,185.34,93.05,182.85,92.12,182.78Z"/></g></g><g id="40647ee9-58af-480d-8983-01e84a68b68a" data-name="Shirt"><g id="d191031a-225c-4d6e-b270-9c2032718a6f" data-name="Shirt"><path id="f387e887-1c38-479c-8b18-083d417a2a8a" data-name="Shadow" class="4f392cd8-791e-4cd2-a523-88d8b3813133" d="M158.54,137.64l0.6-1.76s-25.71-6.66-39.36,2.05C119.78,137.93,151.9,133.58,158.54,137.64Z"/><path class="ba3fc398-3bbf-4bb9-bc8e-780a8e7a2ac0" d="M157.68,138.18c-17.78-4.47-34.91-2-38.25,0,0,0-.47-0.26-1.45,2.25s-2.59,1.63-3.34,3.12-3.72,1-3.89,4c0,0,19.14-15.24,44.89-3.72C155.63,143.82,162.76,139.46,157.68,138.18Z"/><path class="0b227eee-32e7-4f26-8de5-65c952820018" d="M115.22,143.56c0.75-1.49,2.36-.62,3.34-3.12s1.45-2.25,1.45-2.25c2-1.17,8.61-2.5,17.36-2.51-9,0-15.94,1.31-17.94,2.51,0,0-.47-0.26-1.45,2.25s-2.59,1.63-3.34,3.12-3.72,1-3.89,4c0,0,.22-0.17.64-0.47C111.83,144.62,114.51,145,115.22,143.56Z"/><path class="4f392cd8-791e-4cd2-a523-88d8b3813133" d="M157.68,140s-19.69-8.33-38.75.58c0,0,19-8.49,36.71,1,0,0-11.52-3.35-12.2-3.33,0,0,10,2.83,13.67,6.42Z"/></g><g id="3baa6a6d-9eb8-43cb-9179-4cd016089f0a" data-name="Collar"><path class="4f392cd8-791e-4cd2-a523-88d8b3813133" d="M159.5,139.64c0-.6-0.53-1.13-1.83-1.46a85.19,85.19,0,0,0-31.36-1.8,40.53,40.53,0,0,0-7.61,2.49,10.59,10.59,0,0,0-.73,1.57,4.33,4.33,0,0,1-.46.89C121.11,138.84,133.72,132.34,159.5,139.64Z"/><path class="95a6b348-11fc-4b2b-9c5a-b25d37f998e2" d="M117.48,138.85l-1.08,2.75s12.28-11.73,44.52-2.14l-1.78-2.29S135.12,130.16,117.48,138.85Z"/></g></g><g id="feb3a97b-8557-438f-9ff2-0647fdf22b3f" data-name="Bum"><path id="f1421236-afd2-4151-933e-7707e66d4f51" data-name="Bum" class="44968682-7f3f-4802-b7e5-b92c42e28826" d="M157.68,144s-23.73-12.76-42.89.44c-17.49,12-20.39,26.5-15.93,41.42s76.58,4,77.34,2.41S157.68,144,157.68,144Z"/><path id="f49745b4-49f2-4c6b-bc00-4a0efd428840" data-name="Shadow" class="4f392cd8-791e-4cd2-a523-88d8b3813133" d="M162.24,190.91L159,177.36V178s-46.58,9.67-62-2l0,0.13a43.18,43.18,0,0,0,1.77,9.61C102,196.65,140.87,193.86,162.24,190.91Z"/><path id="58cb6005-a3a8-4670-9df0-1a1fbc31a2d9" data-name="Highlight" class="4a64b3e4-681c-4fae-8f84-696a73ccfde0" d="M114.94,145.56c19.16-13.19,43.06-.44,43.06-0.44V144s-23.89-12.76-43.06.44c-13,9-17.94,19.25-17.78,30.07C97.36,164.07,102.4,154.2,114.94,145.56Z"/></g></g></g><g id="483d3e47-5754-4297-86e9-22298f4175c2" data-name="Wombat - Waving"><g id="820fc616-9f22-4df0-8234-ee62938dad9c" data-name="Arm"><g id="328afe3e-f53e-46ec-b594-8e197817ef1e" data-name="Arm"><path id="288e715a-ce40-4de5-909e-8bdc02bb9dd0" data-name="arm" class="7c315242-beab-4e1d-bb08-5d96450a1d5c" d="M218.25,117.39S219.32,95.7,215.76,82c-14.16,3.67-21.69,20.66-22.28,23.31-1.65,7.35-2.47,11,6.32,23.69C213.31,148.54,218.25,117.39,218.25,117.39Z"/><path id="bb4c77dd-07c2-4f32-8285-2ee2f5b4e12a" data-name="Highlight" class="4a64b3e4-681c-4fae-8f84-696a73ccfde0" d="M193.48,106.43c0.6-2.65,7.71-19.64,21.87-23.31a121.74,121.74,0,0,1,3,20.44c-0.22-6.9-.87-15.13-2.54-21.6-14.16,3.67-21.69,20.66-22.28,23.31a28.62,28.62,0,0,0-1,7.46A34.81,34.81,0,0,1,193.48,106.43Z"/></g><g id="970de943-b433-4446-84e9-710e48f8cf5d" data-name="Ring"><path class="246dff6b-e3ac-4368-9ea3-c03fd76314d4" d="M193.21,116.16l-0.41-.69s-0.23-1.21-.26-1.49c0,0,9.1,2.61,24.06,0l-0.92,2.66S195,118.63,193.21,116.16Z"/><path class="f1f79011-3630-4cc7-88c0-588febe7bdd9" d="M193.79,116.16l-0.41-.69s-0.18-.92-0.24-1.34l-0.6-.15c0,0.28.26,1.49,0.26,1.49l0.41,0.69c0.7,1,4.26,1.25,8.35,1.24C197.72,117.38,194.46,117.08,193.79,116.16Z"/></g><g id="c27d2179-c4ed-435b-8aa1-5ae6f3de8888" data-name="Sleeve"><path class="ba3fc398-3bbf-4bb9-bc8e-780a8e7a2ac0" d="M218.87,115.68s-18.24,3.17-26.07-.21a0.89,0.89,0,0,0-.26,1.17c0.3,0.88,5.52,15.08,12.87,14.33S218.87,115.68,218.87,115.68Z"/><path class="0b227eee-32e7-4f26-8de5-65c952820018" d="M193.12,116.65a1,1,0,0,1,.09-1l-0.4-.16a0.89,0.89,0,0,0-.26,1.17c0.3,0.86,5.39,14.69,12.58,14.34C198.24,130.6,193.41,117.49,193.12,116.65Z"/></g><path id="94141a8d-f588-447a-a2b8-dda597d17376" data-name="Shadow" class="4f392cd8-791e-4cd2-a523-88d8b3813133" d="M211.86,108.33s-13.75,9.56-12.59,14.61c0,0,15-8.63,19.11-10.71,0.09-7.26-.14-20.69-2.62-30.26l-0.41,1.16S216.37,103.78,211.86,108.33Z"/></g><g id="af5d2638-7fe9-41b0-b6b7-66dcc5f5ee2c" data-name="npm - wombat - face"><path id="859dc7c7-8baf-4b4d-9c79-9a39691f9c96" data-name="head" class="7c315242-beab-4e1d-bb08-5d96450a1d5c" d="M269.33,149.84c3.51-15,0-31.54-11.91-40.53s-28.79-7.8-42.24-.29-23.62,21-23.62,21c-0.17,24.86,40.28,55.33,64.11,48.33C255.66,178.33,265.82,164.85,269.33,149.84Z"/><path id="6f5f752e-7129-48dc-b6ed-5c46ae29cdb0" data-name="Highlight" class="4a64b3e4-681c-4fae-8f84-696a73ccfde0" d="M215.17,110.18c13.46-7.5,30.32-8.7,42.24.29a33.13,33.13,0,0,1,12,19.08c0.75,3.13.91,3,.21-0.22-1.71-7.94-5.71-15.11-12.23-20-11.93-9-28.79-7.8-42.24-.29s-23.62,21-23.62,21c0,0.38,0,.76,0,1.13C192,130.56,202,117.52,215.17,110.18Z"/><path class="4f392cd8-791e-4cd2-a523-88d8b3813133" d="M268.78,151.95a51.08,51.08,0,0,0,1.63-17.66c0-.2,0-0.39-0.06-0.59s-0.07-.66-0.12-1a39.42,39.42,0,0,0-3.36-11.61c0.42,1.15,7,20.67-14.78,50.19h0l-0.44,7.85a25.37,25.37,0,0,0,4-.81C259.5,173.24,265.89,162.43,268.78,151.95Z"/><path class="4f392cd8-791e-4cd2-a523-88d8b3813133" d="M236.11,177.36a56,56,0,0,0,14.16-3.65c0.63-.81,1.24-1.62,1.82-2.42,0,0-19.67,0-38.33-5.82C222.44,172.2,238.85,178.21,236.11,177.36Z"/><g id="df72a095-41aa-4a56-aff7-602c318724bc" data-name="ears"><g id="fe25535b-89ad-4945-92c1-a45fb1495993" data-name="ear"><path class="7c315242-beab-4e1d-bb08-5d96450a1d5c" d="M273.26,121.46l-6.4-.41-1.39,6.47,4.54,5.85A32,32,0,0,0,273.26,121.46Z"/><path class="4a64b3e4-681c-4fae-8f84-696a73ccfde0" d="M272.68,122A46.08,46.08,0,0,1,270,133.91h0s3-6.91,3.25-11.91h-0.58Z"/><polygon class="5bf9f1ad-3878-46ae-bb61-7067c5d52cff" points="266.54 122.52 266.86 121.05 273.26 121.46 268.13 125.75 266.54 122.52"/></g><g id="393f98d1-860b-44e8-8147-9940bb13117e" data-name="ear"><path class="7c315242-beab-4e1d-bb08-5d96450a1d5c" d="M241.38,97.43l2.15,6-5.83,3.12-6.87-2.76A32,32,0,0,1,241.38,97.43Z"/><path id="6cb81a27-263c-44ad-97af-c5456e90db69" data-name="Highlight" class="4a64b3e4-681c-4fae-8f84-696a73ccfde0" d="M241.38,98.59l1.81,5.06,0.35-.19-2.15-6a32,32,0,0,0-10.55,6.4l1.57,0.63C234,103.08,237.08,100,241.38,98.59Z"/><polygon class="5bf9f1ad-3878-46ae-bb61-7067c5d52cff" points="242.21 104.18 243.53 103.47 241.38 97.43 238.67 103.54 242.21 104.18"/></g></g><g id="66d2903d-06df-4c64-963f-fe6ecf0768ee" data-name="Face"><g id="7a92bdac-4588-4c6e-941f-9a29a871f614" data-name="nose"><ellipse id="39ff4a08-896b-4e50-95e1-0de1f791aead" data-name="nose" class="4f392cd8-791e-4cd2-a523-88d8b3813133" cx="232.96" cy="140.74" rx="5.71" ry="11.81" transform="translate(-19.65 242.05) rotate(-52.99)"/><ellipse id="ce8a59af-18c2-4084-bb54-6dec5b08d736" data-name="nose" cx="233.62" cy="139.86" rx="5.71" ry="11.81" transform="translate(-18.68 242.23) rotate(-52.99)"/></g><g id="c081e972-7800-4eff-bcf2-14a4a34d856a" data-name="face"><g id="118e5b69-a37f-4c4c-b486-72fd0cd14dbb" data-name="eyes"><g id="df7cf2fe-1a3d-4dd2-9f7f-b010f5a046f2" data-name="eye"><path class="732b3eb5-d67f-4d33-9565-ec1a9e28a0af" d="M224.92,127.34c-2.71-2,.38-6.15,3.09-4.11S227.64,129.39,224.92,127.34Z"/><path d="M227.73,124.42a1.92,1.92,0,0,1-2.32,3.07A1.92,1.92,0,0,1,227.73,124.42Z"/><path class="7be34267-8eb6-451b-a9d0-03457aa2f74a" d="M227.5,126.05a0.62,0.62,0,0,1-1-.75A0.62,0.62,0,0,1,227.5,126.05Z"/></g><g id="0a17980b-1e62-4260-ba0c-fdd578397666" data-name="eye"><path class="732b3eb5-d67f-4d33-9565-ec1a9e28a0af" d="M247.64,141.25c-2,2.71,2.06,5.81,4.11,3.09S249.69,138.53,247.64,141.25Z"/><path d="M250.56,144a1.92,1.92,0,0,1-3.07-2.32A1.92,1.92,0,0,1,250.56,144Z"/><path class="7be34267-8eb6-451b-a9d0-03457aa2f74a" d="M249.67,142.77a0.62,0.62,0,0,1-1-.75A0.62,0.62,0,0,1,249.67,142.77Z"/></g></g></g></g></g><g id="f54a5887-56f0-46c4-a640-151dce423ee9" data-name="Arm"><path id="1c9b1738-ad32-435a-9aae-a63ccb4d759b" data-name="Shadow" class="4f392cd8-791e-4cd2-a523-88d8b3813133" d="M255.9,173.83l-0.72-3.45s-4.24-5.69-10.64-3.69c0,0-11.78.7-15.89,8.93S255.9,173.83,255.9,173.83Z"/><g id="b67bad39-6756-4673-bb42-1d926ced7761" data-name="Arm"><g id="026065c7-4d1c-4251-b501-372efe284450" data-name="Sleeve"><g id="b93a0068-534c-4dbb-a787-76f976e490bb" data-name="Sleeve"><path class="ba3fc398-3bbf-4bb9-bc8e-780a8e7a2ac0" d="M244.77,167.8a1.19,1.19,0,0,1,.87-0.47c0.53,0,.19-0.48,2.81,0s4.69,0.48,6.72,3,2,12,1,13.19-0.9,1.45-1.23,1.74-1.71,1.42-2.88,1.31S244.77,167.8,244.77,167.8Z"/><path id="e6f4055d-2960-4590-8ad7-a0ea55e56017" data-name="Highlight" class="0b227eee-32e7-4f26-8de5-65c952820018" d="M245.64,167.92c0.53,0,.39-0.6,3-0.11s4.49,0.6,6.53,3.16c1.16,1.46,1.66,5.11,1.69,8.23,0-3.23-.46-7.26-1.69-8.81-2-2.57-4.11-2.57-6.72-3s-2.28,0-2.81,0a1.19,1.19,0,0,0-.87.47l0.14,0.43A1.09,1.09,0,0,1,245.64,167.92Z"/><g id="37e179cf-f386-41e1-9286-15f2f90f0559" data-name="Shade"><path class="4f392cd8-791e-4cd2-a523-88d8b3813133" d="M246.42,167.13a2.77,2.77,0,0,0-.64.19h0c2.9-.24,6.68,2.47,6.68,2.47A10.27,10.27,0,0,0,246.42,167.13Z"/><path class="4f392cd8-791e-4cd2-a523-88d8b3813133" d="M256.2,183.58c0.72-.85.93-5.79,0.27-9.52a16.1,16.1,0,0,1-.57,1.93,7.3,7.3,0,0,0,.18,1.85c0,0.18-1-3-1.28-3,0,0-2.56,8.43-3.24,11.19a1.22,1.22,0,0,0,.52.61c1.17,0.11,2.54-1,2.88-1.31S255.18,184.79,256.2,183.58Z"/></g></g><g id="b06af990-f75d-44a2-b6f9-9acec6db5ee5" data-name="Ring"><path id="9da5c44d-5743-43e5-af53-29146fcb2f6c" data-name="arm" class="246dff6b-e3ac-4368-9ea3-c03fd76314d4" d="M252.19,186.68c2.84-1,5-4.56,2.79-11.35-2-6-5.76-7.66-9.63-7.52C240.3,168,251.31,187,252.19,186.68Z"/><path id="70aa20c5-d3d0-400d-ab16-3615e865f1fa" data-name="Shade" class="4f392cd8-791e-4cd2-a523-88d8b3813133" d="M255.29,176.37l-0.57,2.08s-2.5,4.65-3.68,7a3.07,3.07,0,0,0,1.16,1.27C254.88,185.75,257,182.49,255.29,176.37Z"/></g></g><g id="dbfec220-80ec-4372-b958-042ac762e633" data-name="arm"><path id="c2b44a14-6d49-4db7-bef5-efcdbe829bd6" data-name="arm" class="7c315242-beab-4e1d-bb08-5d96450a1d5c" d="M232.55,172.5c-2.49,2-9.5,8.57-11.69,15.75,14.27,4.34,27.78.39,29.36-.46,4.39-2.37,6.55-3.53,3.6-12.46C249.28,161.6,235,170.45,232.55,172.5Z"/><path id="9048816a-84d7-46ba-be99-95d74b3ee122" data-name="Shadow" class="4f392cd8-791e-4cd2-a523-88d8b3813133" d="M250.22,187.79c3.82-2.06,5.95-3.21,4.5-9.34-0.7,3.24-6,8.84-33.86,9.8C235.13,192.59,248.64,188.65,250.22,187.79Z"/><path id="9a0e3a2a-af66-4a55-9b02-0b6177563e39" data-name="Highlight" class="4a64b3e4-681c-4fae-8f84-696a73ccfde0" d="M232.55,173.66c2.49-2,16.73-10.9,21.27,2.83a24.28,24.28,0,0,1,1.34,5.82,19.28,19.28,0,0,0-1.34-7c-4.54-13.73-18.78-4.88-21.27-2.83s-9.5,8.57-11.69,15.75h0C223.37,181.5,230.18,175.61,232.55,173.66Z"/></g></g></g></g><g id="7b26450c-bb8a-4923-9507-0a7ccf00c1f3" data-name="Wombat - Front"><path id="034be408-4cba-4c26-8740-f23eeeaa28b9" data-name="Wombat - Front - BG" class="614b9e90-ad49-4397-8d43-0727d61f1770" d="M232.06,177.34c-0.29-1.68-.38-5.49-4.8-6.93-2.68-17-11.32-31.63-21.76-40.23a32.17,32.17,0,0,0-5.84-10.38L198.9,119l-5.26,4.42a33,33,0,0,0-11.19-2,32.21,32.21,0,0,0-17.66,5.4l-6.14-3.08-0.53,1a32.17,32.17,0,0,0-3.26,11.45c-10.72,14.18-12.54,32.55-11.94,42.4-3.65,12.62,5.64,13.2,6.86,13.5,4.07-4.62,71.6-6.74,77.55-2.26C233.28,189.11,232.25,178.71,232.06,177.34Z"/><g id="b0aaf09b-21a3-4d48-a0d3-6db5523755d1" data-name="Wombat - Front"><g id="52db5050-d508-4693-91d4-ca225f03ba44" data-name="Face"><g id="7dfaa434-4d4d-4b67-a700-0118be8868a6" data-name="Head"><path id="ef464185-c45c-47e6-ad10-a3c5df5a6d39" data-name="head" class="7c315242-beab-4e1d-bb08-5d96450a1d5c" d="M215.57,143.8c-7.84-13.27-21.79-22.8-36.63-21s-26.19,14.27-30.72,29-2.56,31.49-2.56,31.49c17.07,18.08,67.35,12.13,79.73-9.41C225.39,173.83,223.41,157.06,215.57,143.8Z"/><path id="6abc371d-bd70-4138-bb14-5abe1e65ce84" data-name="highlight" class="4a64b3e4-681c-4fae-8f84-696a73ccfde0" d="M148.22,152.9c4.53-14.72,15.89-27.24,30.72-29s28.79,7.78,36.63,21c6.73,11.4,9.15,25.38,9.69,29.08l0.13-.21s-2-16.77-9.82-30-21.79-22.8-36.63-21-26.19,14.27-30.72,29a79.53,79.53,0,0,0-3,23.1A78.21,78.21,0,0,1,148.22,152.9Z"/><g id="4576b85d-224a-4557-9e53-9617ee55fb3d" data-name="ears"><g id="2c272a85-799f-4f1e-84ec-ec54646cb43c" data-name="ear"><path class="7c315242-beab-4e1d-bb08-5d96450a1d5c" d="M198.78,120.57l-4.91,4.13,3.47,5.64,7.33,1.08A32,32,0,0,0,198.78,120.57Z"/><polygon class="5bf9f1ad-3878-46ae-bb61-7067c5d52cff" points="194.66 125.98 193.88 124.7 198.78 120.57 198.05 127.21 194.66 125.98"/></g><g id="2c26f402-1fb5-4fb1-9d16-d432dbf0534f" data-name="ear"><path class="7c315242-beab-4e1d-bb08-5d96450a1d5c" d="M159.14,125.24l5.73,2.87-2.06,6.29-6.87,2.76A32,32,0,0,1,159.14,125.24Z"/><polygon class="5bf9f1ad-3878-46ae-bb61-7067c5d52cff" points="164.41 129.55 164.87 128.12 159.14 125.24 161.4 131.53 164.41 129.55"/></g></g><path id="c933f41f-af1f-430c-8c0b-25a47b794eee" data-name="highlight" class="4a64b3e4-681c-4fae-8f84-696a73ccfde0" d="M198.78,120.57a32,32,0,0,1,5.89,10.85l-1.21-.18c-0.74-2.05-1.83-6.23-4.8-9.56Zm-42.84,16.6,0.77-.31a28.85,28.85,0,0,1,2.8-10.6l-0.36-1A32,32,0,0,0,155.94,137.16Z"/></g><g id="545f2422-8927-4168-86ad-30755181526c" data-name="Face"><g id="7a1ac93b-4f32-4bf9-b9a7-fd85265fb46e" data-name="nose"><ellipse id="15b2fd79-5df7-4fe2-ad6e-264998e4c20c" data-name="nose" class="4f392cd8-791e-4cd2-a523-88d8b3813133" cx="185.17" cy="178.46" rx="11.81" ry="5.71" transform="translate(-19.63 22.92) rotate(-6.73)"/><ellipse id="8c8daea0-c302-4258-afa8-bb71693e7c1a" data-name="nose" cx="185.04" cy="177.36" rx="11.81" ry="5.71" transform="translate(-19.51 22.9) rotate(-6.73)"/></g><g id="2202ad1b-43e1-4054-a693-34773479cc77" data-name="face"><g id="e1a4c0a6-e80b-4ffa-aae9-fb9223852b45" data-name="eyes"><g id="2f8a14d1-875c-4086-bfdc-3775e2f2a556" data-name="eye"><path class="732b3eb5-d67f-4d33-9565-ec1a9e28a0af" d="M170.11,174.34c-3.37.4-4-4.71-.6-5.11S173.48,173.94,170.11,174.34Z"/><path d="M170.12,170.28a1.92,1.92,0,0,1,.45,3.82A1.92,1.92,0,0,1,170.12,170.28Z"/><path class="7be34267-8eb6-451b-a9d0-03457aa2f74a" d="M171.07,171.63a0.62,0.62,0,0,1-1.24.15A0.62,0.62,0,0,1,171.07,171.63Z"/></g><g id="3667bdb6-c7c9-4624-8635-49e779368330" data-name="eye"><path class="732b3eb5-d67f-4d33-9565-ec1a9e28a0af" d="M196.14,168.68c0.4,3.37,5.5,2.77,5.11-.6S195.74,165.3,196.14,168.68Z"/><path d="M200.17,168.68a1.92,1.92,0,0,1-3.82.45A1.92,1.92,0,0,1,200.17,168.68Z"/><path class="7be34267-8eb6-451b-a9d0-03457aa2f74a" d="M198.65,168.37a0.62,0.62,0,0,1-1.24.15A0.62,0.62,0,0,1,198.65,168.37Z"/></g></g></g></g><g id="a9d58cbb-170e-496a-bf97-ceea9b9e7c68" data-name="Shadow"><path class="4f392cd8-791e-4cd2-a523-88d8b3813133" d="M219.53,169.63l-0.12,0-0.16,0a2.1,2.1,0,0,0-1.11.44c-10.31.23-20.92,11.61-24.22,22.19,13.74-2.81,26.14-9.2,31.48-18.49,0,0-.17-1.4-0.59-3.7-0.71-.16-1.47-0.3-2.28-0.45C220.69,169.34,220.15,169.39,219.53,169.63Z"/><path class="4f392cd8-791e-4cd2-a523-88d8b3813133" d="M158.57,171.3a2.35,2.35,0,0,0-1-.55,4.13,4.13,0,0,0-2-.41c-5.15,0-8.61.89-10.35,4.84,0,4.84.42,8.05,0.42,8.05,7.16,7.59,20.17,10.94,33.77,10.69-1.2-5.16-3-9.66-6.35-13.56C168.58,175.11,163.45,171.91,158.57,171.3Z"/></g></g><g id="86973e60-313d-4fce-be5a-370ae10be8b9" data-name="Arms"><g id="64af7241-9833-4907-b144-a9a0d68014ff" data-name="Arm"><g id="97668c2c-c4f7-4db7-84ff-f54bf501e04b" data-name="Sleeve"><g id="0ec7cde8-884a-47d8-bc3e-36864a6a92b3" data-name="Sleeve"><path class="ba3fc398-3bbf-4bb9-bc8e-780a8e7a2ac0" d="M218.63,171.29a1.19,1.19,0,0,1,.87-0.47c0.53,0,.19-0.48,2.81,0s4.69,0.48,6.72,3,2,12,1,13.19-0.9,1.45-1.23,1.74-1.71,1.42-2.88,1.31S218.63,171.29,218.63,171.29Z"/><path id="2c7aa670-fd4c-4f06-bad2-149ff020cd62" data-name="Highlight" class="0b227eee-32e7-4f26-8de5-65c952820018" d="M219.5,171.4c0.53,0,.39-0.6,3-0.11s4.49,0.6,6.53,3.16c1.16,1.46,1.66,5.11,1.69,8.23,0-3.23-.46-7.26-1.69-8.81-2-2.57-4.11-2.57-6.72-3s-2.28,0-2.81,0a1.19,1.19,0,0,0-.87.47l0.14,0.43A1.09,1.09,0,0,1,219.5,171.4Z"/><g id="17ed4984-6669-40ac-b47a-68b168499a27" data-name="Shade"><path class="4f392cd8-791e-4cd2-a523-88d8b3813133" d="M220.27,170.62a2.77,2.77,0,0,0-.64.19h0c2.9-.24,6.68,2.47,6.68,2.47A10.27,10.27,0,0,0,220.27,170.62Z"/><path class="4f392cd8-791e-4cd2-a523-88d8b3813133" d="M230.06,187.06c0.72-.85.93-5.79,0.27-9.52a16.1,16.1,0,0,1-.57,1.93,7.3,7.3,0,0,0,.18,1.85c0,0.18-1-3-1.28-3,0,0-2.56,8.43-3.24,11.19a1.22,1.22,0,0,0,.52.61c1.17,0.11,2.54-1,2.88-1.31S229,188.27,230.06,187.06Z"/></g></g><g id="c52ead10-79b2-4cf2-9cf9-b25560968d1e" data-name="Ring"><path id="9894f49d-9845-43bc-9d26-4d543c155b7d" data-name="arm" class="246dff6b-e3ac-4368-9ea3-c03fd76314d4" d="M226.05,190.17c2.84-1,5-4.56,2.79-11.35-2-6-5.76-7.66-9.63-7.52C214.16,171.48,225.17,190.47,226.05,190.17Z"/><path id="5dd1d2ce-52a7-4d2d-b98b-c584c5dcafcf" data-name="Shade" class="4f392cd8-791e-4cd2-a523-88d8b3813133" d="M229.15,179.86l-0.57,2.08s-2.5,4.65-3.68,7a3.07,3.07,0,0,0,1.16,1.27C228.74,189.24,230.85,186,229.15,179.86Z"/></g></g><g id="50bd5a6f-962f-4f31-b22f-9ea1ec0240fd" data-name="arm"><path id="b8b01232-02c5-4fe1-a58f-cc6afe2414c2" data-name="arm" class="7c315242-beab-4e1d-bb08-5d96450a1d5c" d="M206.41,176c-2.49,2-9.5,8.57-11.69,15.75,14.27,4.34,27.78.39,29.36-.46,4.39-2.37,6.55-3.53,3.6-12.46C223.13,165.08,208.9,173.94,206.41,176Z"/><path id="d8f2d841-6c4b-43e6-9f2f-2559e3db45d8" data-name="Shadow" class="4f392cd8-791e-4cd2-a523-88d8b3813133" d="M224.08,191.28c3.82-2.06,5.95-3.21,4.5-9.34-0.7,3.24-6,8.84-33.86,9.8C209,196.08,222.5,192.13,224.08,191.28Z"/><path id="067c24ad-477c-4865-80df-2ff3f558c20e" data-name="Highlight" class="4a64b3e4-681c-4fae-8f84-696a73ccfde0" d="M206.41,177.15c2.49-2,16.73-10.9,21.27,2.83A24.28,24.28,0,0,1,229,185.8a19.28,19.28,0,0,0-1.34-7c-4.54-13.73-18.78-4.88-21.27-2.83s-9.5,8.57-11.69,15.75h0C197.22,185,204,179.1,206.41,177.15Z"/></g></g><g id="b38b1bf0-9396-4736-9b88-c36a67b79715" data-name="Arm"><g id="fdcaf3cf-6bd0-43db-a143-8e04c86c648e" data-name="Sleeve"><g id="488550aa-ba7d-4d66-9c53-3268e21248c9" data-name="Sleeve"><path class="ba3fc398-3bbf-4bb9-bc8e-780a8e7a2ac0" d="M158,172.41a1.19,1.19,0,0,0-.82-0.55c-0.53-.05-0.14-0.5-2.79-0.28s-4.71,0-7,2.35-3.24,11.71-2.35,13,0.74,1.54,1.05,1.86,1.56,1.58,2.73,1.59S158,172.41,158,172.41Z"/><path id="9ea24aab-0676-4237-a533-e0f1e29c76ca" data-name="Highlight" class="0b227eee-32e7-4f26-8de5-65c952820018" d="M157.08,172.43c-0.53-.05-0.32-0.63-3-0.42s-4.53.14-6.82,2.49c-1.3,1.33-2.16,4.92-2.51,8,0.3-3.21,1.19-7.18,2.57-8.59,2.29-2.35,4.35-2.14,7-2.35s2.26,0.23,2.79.28a1.19,1.19,0,0,1,.82.55l-0.18.41A1.09,1.09,0,0,0,157.08,172.43Z"/><g id="80b0fce8-27da-4cd4-8dff-4091c89b4894" data-name="Shade"><path class="4f392cd8-791e-4cd2-a523-88d8b3813133" d="M156.4,171.57a2.77,2.77,0,0,1,.62.25h0c-2.87-.53-6.9,1.78-6.9,1.78A10.27,10.27,0,0,1,156.4,171.57Z"/><path class="4f392cd8-791e-4cd2-a523-88d8b3813133" d="M145,186.94c-0.63-.92-0.34-5.85.69-9.5a16.1,16.1,0,0,0,.37,2,7.3,7.3,0,0,1-.37,1.82c0,0.18,1.3-2.89,1.58-2.86,0,0,1.69,8.64,2.09,11.46a1.22,1.22,0,0,1-.58.55c-1.17,0-2.43-1.27-2.73-1.59S145.89,188.25,145,186.94Z"/></g></g><g id="f605d25e-6a7b-4283-aba9-031059c6e9d3" data-name="Ring"><path id="94f7f40a-2add-4f33-b8e8-30574061414f" data-name="arm" class="246dff6b-e3ac-4368-9ea3-c03fd76314d4" d="M148.67,190.44c-2.72-1.26-4.55-5-1.63-11.57,2.56-5.72,6.51-7,10.34-6.51C162.39,173,149.52,190.83,148.67,190.44Z"/><path id="5785d260-dda3-4fb8-8a36-15fe210fb6db" data-name="Shade" class="4f392cd8-791e-4cd2-a523-88d8b3813133" d="M146.63,179.86L147,182s2,4.87,3,7.3a3.07,3.07,0,0,1-1.28,1.15C146.09,189.24,144.32,185.78,146.63,179.86Z"/></g></g><g id="83e2ab68-8a71-4c29-b78a-6eabb01f19da" data-name="arm"><path id="ac47d0b6-af24-4b6d-afad-963e46402a44" data-name="arm" class="7c315242-beab-4e1d-bb08-5d96450a1d5c" d="M169.65,178.31c2.27,2.29,8.59,9.49,10,16.85-14.63,2.87-27.68-2.42-29.16-3.43-4.13-2.8-6.16-4.18-2.32-12.76C154.11,165.78,167.38,176,169.65,178.31Z"/><path id="1f3d9bb5-f46e-4a17-a551-5c16c409bf0c" data-name="Shadow" class="4f392cd8-791e-4cd2-a523-88d8b3813133" d="M150.52,191.74c-3.59-2.44-5.59-3.8-3.53-9.74,0.37,3.3,5.09,9.4,32.7,13.17C165.05,198,152,192.75,150.52,191.74Z"/><path id="a2370d15-a89d-4e48-9145-4827808f106d" data-name="Highlight" class="4a64b3e4-681c-4fae-8f84-696a73ccfde0" d="M169.53,179.47c-2.27-2.29-15.54-12.54-21.45.67a24.28,24.28,0,0,0-1.92,5.66,19.28,19.28,0,0,1,2-6.81c5.91-13.2,19.18-3,21.45-.67s8.59,9.49,10,16.85h0C177.87,188.19,171.69,181.65,169.53,179.47Z"/></g></g></g></g></g></g><g id="11a7a418-0ceb-4043-b1cf-6e1e4aafff11" data-name="Box"><g id="710fa852-952f-4608-8c4c-7273276ba5b3" data-name="Box"><g id="208f3495-b41d-43c1-a4ec-36bb7dbcac6e" data-name="Box"><rect id="da180d8b-66d5-4040-b617-a23d5e1ba40d" data-name="Shadow" class="7c315242-beab-4e1d-bb08-5d96450a1d5c" x="115.76" y="48.6" width="79.22" height="59.41" transform="translate(-18.62 79.2) rotate(-27.04)"/><rect id="f08ebaaa-5f8a-4256-ad5d-50ac9e32e158" data-name="Folds" class="17589d2a-8b98-4a68-809b-f9694bc81168" x="116.02" y="49.12" width="79.22" height="59.41" transform="translate(-18.82 79.37) rotate(-27.04)"/><rect id="d5251a5e-4f33-45b9-9896-a45b9c0bf5fe" data-name="Body" class="5358a46f-cd39-454c-bcc9-dc90409f750a" x="116.6" y="49.12" width="78.06" height="59.41" transform="translate(-18.82 79.37) rotate(-27.04)"/></g><g id="9f0a8435-e3d7-4080-89fb-fb24bfca2da3" data-name="NPM"><path id="09302453-8ec3-4bb2-8e76-659f5b531a14" data-name="Rectangle 1" class="4f157e9f-5281-407c-a8c1-29dec7b78622" d="M173.14,75.44L142.61,91l-5.24-10.26L152.64,73l-0.84-1.65,6.78-3.46,0.84,1.65,8.49-4.33Zm-6.08-7.64-3.37,1.72,2.62,5.12-1.7.87L162,70.39l-1.68.86L163.78,78l6.75-3.44-3.46-6.78h0Zm-5,11.11-4.38-8.54-3.36,1.71,0.87,1.71-3.4,1.74,3.49,6.84Zm-4.18.06-1.77.9-1.78-3.48,1.77-.9Zm-4.31,4.28-3.46-6.78-3.38,1.72,2.6,5.09-1.69.86-2.6-5.09-1.69.86L146,85l-1.69.86-2.59-5.07-1.69.86,3.46,6.78Z"/></g><rect id="e71f71eb-855d-400b-b48f-c616e98e583a" data-name="Shadow" class="1ab31062-6027-494f-9722-a3b86e367064" x="124.38" y="85.6" width="79.22" height="19.18" transform="translate(-25.35 84.96) rotate(-27.04)"/></g><g id="cd650ffd-0c9f-4cf0-b1e5-9bf2f21416ae" data-name="Box Details"><g id="faabaadc-db29-48ea-9e8e-18fa3697210d" data-name="Packaging"><g id="ed5366e6-0bb0-46ba-91b6-2f1d151f898f" data-name="This Way Up"><g id="293caf49-e7f9-403d-b2ad-0266edb9950e" data-name="Arrows"><g id="998a9369-757d-4088-94b1-a41468d408cd" data-name="Arrows"><polygon id="fac8bc2e-99aa-4712-8a13-af198e676720" data-name="Arrow" class="b32abaf7-c639-42cc-9131-8f399ef09c60" points="116.46 74.41 118.29 75 118.88 73.18 118.11 73.57 116.46 70.32 115.57 70.78 117.23 74.02 116.46 74.41"/><polygon id="d5360f73-3b6d-4e3b-b14e-c86928eb67ca" data-name="Arrow" class="b32abaf7-c639-42cc-9131-8f399ef09c60" points="113.57 75.89 115.4 76.48 115.99 74.65 115.22 75.04 113.57 71.8 112.68 72.25 114.34 75.5 113.57 75.89"/></g><rect id="b81ed48e-1fa8-48f7-be3c-855448447814" data-name="Line" class="b32abaf7-c639-42cc-9131-8f399ef09c60" x="111.43" y="70.63" width="5.74" height="0.27" transform="translate(248.28 81.82) rotate(152.96)"/></g><path id="5c365d9b-682d-49f9-8fb7-acac3e6fd242" data-name="Border" class="b32abaf7-c639-42cc-9131-8f399ef09c60" d="M110.88,70.6l5.3-2.71a1.45,1.45,0,0,1,2,.63l2.71,5.3a1.45,1.45,0,0,1-.63,2l-5.3,2.71a1.45,1.45,0,0,1-2-.63l-2.71-5.3A1.45,1.45,0,0,1,110.88,70.6Zm9.07,4.67a0.87,0.87,0,0,0,.38-1.17l-2.71-5.3a0.87,0.87,0,0,0-1.17-.38l-5.3,2.71a0.87,0.87,0,0,0-.38,1.17l2.71,5.3a0.87,0.87,0,0,0,1.17.38Z"/></g><g id="9282c57b-7dc2-4cd8-8bcb-9e5bf89a65e4" data-name="Barcode"><path class="b32abaf7-c639-42cc-9131-8f399ef09c60" d="M157.13,62.26l-6-11.83,7.32-3.73,6,11.83-7.32,3.73m-0.24.73,8.28-4.23L158.64,46l-8.28,4.23L156.89,63h0Z"/><rect class="b32abaf7-c639-42cc-9131-8f399ef09c60" x="155.24" y="55.15" width="5.88" height="0.28" transform="translate(-7.85 77.96) rotate(-27.04)"/><rect class="b32abaf7-c639-42cc-9131-8f399ef09c60" x="154.98" y="54.74" width="5.88" height="0.06" transform="translate(-7.64 77.78) rotate(-27.04)"/><rect class="b32abaf7-c639-42cc-9131-8f399ef09c60" x="154.67" y="54.12" width="5.88" height="0.14" transform="translate(-7.4 77.58) rotate(-27.04)"/><rect class="b32abaf7-c639-42cc-9131-8f399ef09c60" x="154.87" y="54.48" width="5.88" height="0.19" transform="translate(-7.56 77.72) rotate(-27.04)"/><rect class="b32abaf7-c639-42cc-9131-8f399ef09c60" x="154.39" y="53.35" width="5.88" height="0.56" transform="translate(-7.18 77.39) rotate(-27.04)"/><rect class="b32abaf7-c639-42cc-9131-8f399ef09c60" x="155.52" y="55.57" width="5.88" height="0.56" transform="translate(-8.07 78.15) rotate(-27.04)"/><rect class="b32abaf7-c639-42cc-9131-8f399ef09c60" x="155.95" y="56.63" width="5.88" height="0.11" transform="translate(-8.4 78.44) rotate(-27.04)"/><rect class="b32abaf7-c639-42cc-9131-8f399ef09c60" x="156.94" y="58.56" width="5.88" height="0.14" transform="translate(-9.18 79.1) rotate(-27.04)"/><rect class="b32abaf7-c639-42cc-9131-8f399ef09c60" x="156.66" y="57.86" width="5.88" height="0.43" transform="translate(-8.95 78.91) rotate(-27.04)"/><rect class="b32abaf7-c639-42cc-9131-8f399ef09c60" x="155.76" y="56.25" width="5.88" height="0.14" transform="translate(-8.25 78.31) rotate(-27.04)"/><rect class="b32abaf7-c639-42cc-9131-8f399ef09c60" x="157.22" y="58.9" width="5.88" height="0.57" transform="translate(-9.4 79.29) rotate(-27.04)"/><rect class="b32abaf7-c639-42cc-9131-8f399ef09c60" x="156.43" y="57.53" width="5.88" height="0.18" transform="translate(-8.77 78.76) rotate(-27.04)"/><rect class="b32abaf7-c639-42cc-9131-8f399ef09c60" x="156.09" y="56.82" width="5.88" height="0.28" transform="translate(-8.51 78.53) rotate(-27.04)"/><rect class="b32abaf7-c639-42cc-9131-8f399ef09c60" x="154.06" y="52.91" width="5.88" height="0.14" transform="matrix(0.89, -0.45, 0.45, 0.89, -6.92, 77.17)"/><rect class="b32abaf7-c639-42cc-9131-8f399ef09c60" x="153.78" y="52.21" width="5.88" height="0.43" transform="translate(-6.7 76.98) rotate(-27.04)"/><rect class="b32abaf7-c639-42cc-9131-8f399ef09c60" x="153.55" y="51.88" width="5.88" height="0.18" transform="translate(-6.52 76.83) rotate(-27.04)"/><rect class="b32abaf7-c639-42cc-9131-8f399ef09c60" x="153.21" y="51.17" width="5.88" height="0.28" transform="translate(-6.26 76.6) rotate(-27.04)"/><rect class="b32abaf7-c639-42cc-9131-8f399ef09c60" x="153.07" y="50.98" width="5.88" height="0.11" transform="translate(-6.15 76.51) rotate(-27.04)"/><rect class="b32abaf7-c639-42cc-9131-8f399ef09c60" x="152.88" y="50.6" width="5.88" height="0.14" transform="translate(-6 76.38) rotate(-27.04)"/><rect class="b32abaf7-c639-42cc-9131-8f399ef09c60" x="152.64" y="49.92" width="5.88" height="0.56" transform="translate(-5.82 76.22) rotate(-27.04)"/><rect class="b32abaf7-c639-42cc-9131-8f399ef09c60" x="152.36" y="49.51" width="5.88" height="0.28" transform="translate(-5.59 76.03) rotate(-27.04)"/></g><path id="59153e5d-a92d-4296-8c2e-95d1437ed5d9" data-name="Shipment Placeholder" class="b32abaf7-c639-42cc-9131-8f399ef09c60" d="M177.6,52.44l1-.53-0.26-.52-1,.53,0.26,0.52h0Zm2.07-1.06,3.55-1.81L183,49.06h0l-3.21-6.28-0.52.26,3.21,6.28-3,1.55,0.26,0.52h0Zm-1-9.38,0.52-.26-0.53-1-0.52.26,0.53,1h0Zm-1.06-2.07,0.52-.26-1.51-3-0.52.26h0l-6.88,3.51L169.52,41l6.88-3.51,1.24,2.44h0Zm-10.19,2.13,1-.53L168.22,41l-1,.53,0.26,0.52h0Zm-5.83,7.18,0.52-.26-1.7-3.33,6-3.05-0.26-.52-6.5,3.32,2,3.85h0Zm1.06,2.07,0.52-.26-0.53-1-0.52.26,0.53,1h0Zm3.54,6.94L176.56,53l-0.26-.52-9.83,5-2.75-5.39-0.52.26,3,5.91h0Z"/></g></g><g id="844fc998-5ded-41f0-a2f3-f1db19d7bcd2" data-name="Flap (Front)"><rect id="d7114d43-1aa7-4ae9-acb9-b29eb63b8724" data-name="Shadow" class="7c315242-beab-4e1d-bb08-5d96450a1d5c" x="115.75" y="89.59" width="89.09" height="0.58" transform="translate(343.93 97.05) rotate(152.96)"/><polygon id="31b88d8d-4730-4390-aeef-1aedb6a35a94" data-name="Highlight" class="7be4b143-e83a-4beb-95c2-5e15b862b8fa" points="133.86 123.29 204.42 87.28 204.27 86.7 133.42 122.86 133.86 123.29"/><polygon id="d90075ba-6c2e-4db2-8cba-8a87125b07d3" data-name="Flap" class="17589d2a-8b98-4a68-809b-f9694bc81168" points="133.42 122.86 204.27 86.7 200.1 69.88 120.75 110.39 133.42 122.86"/></g></g></svg>