<svg xmlns="http://www.w3.org/2000/svg" xmlns:xlink="http://www.w3.org/1999/xlink" viewBox="0 0 360 283"><defs><style>.cls-1{fill:none;}.cls-2{fill:#d8995b;}.cls-3{fill:#b87d4a;}.cls-4{fill:#1b130e;}.cls-5{opacity:0.05;}.cls-17,.cls-5{isolation:isolate;}.cls-6{clip-path:url(#clip-path);}.cls-7{clip-path:url(#clip-path-2);}.cls-8{fill:#d4a47f;}.cls-9{fill:#e2b283;}.cls-10{fill:#966844;}.cls-11{fill:#875d3d;}.cls-12{clip-path:url(#clip-path-3);}.cls-13{clip-path:url(#clip-path-4);}.cls-14{clip-path:url(#clip-path-5);}.cls-15{fill:#a42828;}.cls-16{clip-path:url(#clip-path-6);}.cls-17{opacity:0.1;}.cls-18{clip-path:url(#clip-path-7);}.cls-19{clip-path:url(#clip-path-8);}.cls-20{fill:#bb3231;}.cls-21{clip-path:url(#clip-path-9);}.cls-22{clip-path:url(#clip-path-10);}.cls-23{clip-path:url(#clip-path-11);}.cls-24{clip-path:url(#clip-path-12);}.cls-25{clip-path:url(#clip-path-13);}.cls-26{clip-path:url(#clip-path-14);}.cls-27{clip-path:url(#clip-path-15);}.cls-28{clip-path:url(#clip-path-16);}.cls-29{clip-path:url(#clip-path-17);}.cls-30{clip-path:url(#clip-path-18);}.cls-31{fill:#ca3836;}.cls-32{clip-path:url(#clip-path-19);}.cls-33{clip-path:url(#clip-path-20);}.cls-34{clip-path:url(#clip-path-21);}.cls-35{clip-path:url(#clip-path-22);}.cls-36{clip-path:url(#clip-path-23);}.cls-37{clip-path:url(#clip-path-24);}.cls-38{clip-path:url(#clip-path-25);}.cls-39{clip-path:url(#clip-path-26);}.cls-40{fill:#d74141;}.cls-41{fill:#885d3d;}.cls-42{fill:#976844;}.cls-43{fill:#b68463;}.cls-44{fill:#fff;}.cls-45{fill:#dab209;}.cls-46{fill:#ffd117;}.cls-47{fill:#ecc111;}.cls-48{clip-path:url(#clip-path-27);}.cls-49{clip-path:url(#clip-path-28);}.cls-50{clip-path:url(#clip-path-29);}.cls-51{clip-path:url(#clip-path-30);}.cls-52{clip-path:url(#clip-path-31);}.cls-53{clip-path:url(#clip-path-32);}.cls-54{clip-path:url(#clip-path-33);}.cls-55{clip-path:url(#clip-path-34);}.cls-56{clip-path:url(#clip-path-35);}.cls-57{clip-path:url(#clip-path-36);}.cls-58{clip-path:url(#clip-path-37);}.cls-59{clip-path:url(#clip-path-38);}.cls-60{clip-path:url(#clip-path-39);}.cls-61{fill:#704c34;}.cls-62{clip-path:url(#clip-path-40);}.cls-63{clip-path:url(#clip-path-41);}.cls-64{clip-path:url(#clip-path-42);}.cls-65{clip-path:url(#clip-path-43);}.cls-66{clip-path:url(#clip-path-44);}.cls-67{clip-path:url(#clip-path-45);}.cls-68{clip-path:url(#clip-path-46);}.cls-69{clip-path:url(#clip-path-47);}.cls-70{clip-path:url(#clip-path-48);}.cls-71{clip-path:url(#clip-path-49);}.cls-72{clip-path:url(#clip-path-50);}.cls-73{clip-path:url(#clip-path-51);}.cls-74{clip-path:url(#clip-path-52);}.cls-75{clip-path:url(#clip-path-54);}.cls-76{clip-path:url(#clip-path-55);}.cls-77{clip-path:url(#clip-path-56);}.cls-78{fill:#7a5436;}.cls-79{clip-path:url(#clip-path-59);}.cls-80{fill:#b48363;}.cls-81{clip-path:url(#clip-path-62);}.cls-82{clip-path:url(#clip-path-63);}.cls-83{clip-path:url(#clip-path-64);}.cls-84{clip-path:url(#clip-path-65);}.cls-85{clip-path:url(#clip-path-66);}.cls-86{fill:#ae7146;}.cls-87{clip-path:url(#clip-path-67);}.cls-88{clip-path:url(#clip-path-68);}.cls-89{clip-path:url(#clip-path-69);}.cls-90{fill:#80583b;}.cls-91{clip-path:url(#clip-path-72);}.cls-92{clip-path:url(#clip-path-73);}.cls-93{clip-path:url(#clip-path-74);}.cls-94{clip-path:url(#clip-path-75);}.cls-95{clip-path:url(#clip-path-76);}.cls-96{clip-path:url(#clip-path-77);}.cls-97{clip-path:url(#clip-path-78);}.cls-98{clip-path:url(#clip-path-79);}.cls-99{clip-path:url(#clip-path-80);}.cls-100{clip-path:url(#clip-path-81);}.cls-101{clip-path:url(#clip-path-84);}.cls-102{clip-path:url(#clip-path-85);}.cls-103{clip-path:url(#clip-path-86);}.cls-104{clip-path:url(#clip-path-88);}.cls-105{clip-path:url(#clip-path-89);}.cls-106{clip-path:url(#clip-path-90);}.cls-107{clip-path:url(#clip-path-91);}.cls-108{clip-path:url(#clip-path-94);}.cls-109{clip-path:url(#clip-path-95);}.cls-110{clip-path:url(#clip-path-96);}.cls-111{clip-path:url(#clip-path-97);}.cls-112{clip-path:url(#clip-path-98);}.cls-113{clip-path:url(#clip-path-99);}.cls-114{clip-path:url(#clip-path-100);}.cls-115{clip-path:url(#clip-path-101);}.cls-116{clip-path:url(#clip-path-102);}.cls-117{fill:#a93030;}.cls-118{fill:#7c2323;}.cls-119{clip-path:url(#clip-path-103);}.cls-120{clip-path:url(#clip-path-106);}.cls-121{clip-path:url(#clip-path-107);}.cls-122{clip-path:url(#clip-path-108);}.cls-123{clip-path:url(#clip-path-109);}.cls-124{clip-path:url(#clip-path-112);}.cls-125{clip-path:url(#clip-path-113);}.cls-126{clip-path:url(#clip-path-114);}.cls-127{clip-path:url(#clip-path-115);}.cls-128{clip-path:url(#clip-path-118);}.cls-129{clip-path:url(#clip-path-119);}.cls-130{clip-path:url(#clip-path-120);}.cls-131{clip-path:url(#clip-path-121);}.cls-132{clip-path:url(#clip-path-122);}.cls-133{clip-path:url(#clip-path-123);}.cls-134{clip-path:url(#clip-path-124);}.cls-135{clip-path:url(#clip-path-127);}.cls-136{clip-path:url(#clip-path-128);}.cls-137{clip-path:url(#clip-path-129);}.cls-138{clip-path:url(#clip-path-130);}.cls-139{clip-path:url(#clip-path-131);}.cls-140{clip-path:url(#clip-path-132);}.cls-141{clip-path:url(#clip-path-133);}.cls-142{clip-path:url(#clip-path-134);}.cls-143{clip-path:url(#clip-path-135);}.cls-144{clip-path:url(#clip-path-136);}.cls-145{clip-path:url(#clip-path-137);}.cls-146{clip-path:url(#clip-path-139);}.cls-147{clip-path:url(#clip-path-140);}.cls-148{clip-path:url(#clip-path-141);}.cls-149{clip-path:url(#clip-path-142);}.cls-150{clip-path:url(#clip-path-143);}.cls-151{clip-path:url(#clip-path-144);}.cls-152{clip-path:url(#clip-path-145);}.cls-153{clip-path:url(#clip-path-146);}.cls-154{clip-path:url(#clip-path-147);}.cls-155{fill:#aeaeae;}.cls-156{fill:#333;}.cls-157{clip-path:url(#clip-path-148);}.cls-158{clip-path:url(#clip-path-149);}.cls-159{fill:#cbcbcb;}.cls-160{clip-path:url(#clip-path-150);}.cls-161{clip-path:url(#clip-path-151);}.cls-162{clip-path:url(#clip-path-152);}.cls-163{clip-path:url(#clip-path-153);}.cls-164{clip-path:url(#clip-path-154);}.cls-165{clip-path:url(#clip-path-155);}</style><clipPath id="clip-path"><rect class="cls-1" x="225.83" y="137.8" width="35.33" height="34.71"/></clipPath><clipPath id="clip-path-2"><rect class="cls-1" x="226.2" y="137.8" width="34.71" height="35.09"/></clipPath><clipPath id="clip-path-3"><rect class="cls-1" x="236.96" y="83.32" width="48.25" height="35.89"/></clipPath><clipPath id="clip-path-4"><rect class="cls-1" x="236.37" y="83.25" width="48.35" height="34.09"/></clipPath><clipPath id="clip-path-5"><rect class="cls-1" x="236.62" y="83.25" width="47.61" height="33.47"/></clipPath><clipPath id="clip-path-6"><rect class="cls-1" x="254.17" y="108.03" width="5.6" height="6.74"/></clipPath><clipPath id="clip-path-7"><rect class="cls-1" x="253.73" y="107.43" width="6.2" height="7.44"/></clipPath><clipPath id="clip-path-8"><rect class="cls-1" x="253.97" y="107.93" width="5.95" height="6.45"/></clipPath><clipPath id="clip-path-9"><rect class="cls-1" x="236.46" y="108.29" width="21.49" height="8.48"/></clipPath><clipPath id="clip-path-10"><rect class="cls-1" x="236.37" y="108.05" width="21.7" height="9.3"/></clipPath><clipPath id="clip-path-11"><rect class="cls-1" x="236.37" y="108.05" width="21.7" height="8.8"/></clipPath><clipPath id="clip-path-12"><rect class="cls-1" x="227.07" y="80.16" width="34.09" height="28.51"/></clipPath><clipPath id="clip-path-13"><rect class="cls-1" x="227.19" y="80.16" width="33.72" height="28.27"/></clipPath><clipPath id="clip-path-14"><rect class="cls-1" x="181.21" y="79.39" width="79.99" height="30.16"/></clipPath><clipPath id="clip-path-15"><rect class="cls-1" x="181.82" y="78.92" width="79.35" height="30.99"/></clipPath><clipPath id="clip-path-16"><rect class="cls-1" x="182.07" y="79.16" width="78.85" height="30.75"/></clipPath><clipPath id="clip-path-17"><rect class="cls-1" x="197.32" y="112.39" width="48.97" height="10.54"/></clipPath><clipPath id="clip-path-18"><rect class="cls-1" x="197.44" y="112.39" width="48.85" height="10.41"/></clipPath><clipPath id="clip-path-19"><rect class="cls-1" x="235.13" y="100.61" width="24.8" height="22.32"/></clipPath><clipPath id="clip-path-20"><rect class="cls-1" x="235.13" y="100.61" width="24.8" height="22.19"/></clipPath><clipPath id="clip-path-21"><rect class="cls-1" x="178.1" y="105.57" width="62.61" height="17.98"/></clipPath><clipPath id="clip-path-22"><rect class="cls-1" x="178.6" y="105.94" width="62.11" height="17.6"/></clipPath><clipPath id="clip-path-23"><rect class="cls-1" x="201.66" y="96.27" width="46.49" height="11.78"/></clipPath><clipPath id="clip-path-24"><rect class="cls-1" x="201.66" y="96.52" width="46.49" height="11.41"/></clipPath><clipPath id="clip-path-25"><rect class="cls-1" x="202.28" y="95.03" width="42.77" height="8.68"/></clipPath><clipPath id="clip-path-26"><rect class="cls-1" x="202.4" y="95.53" width="42.65" height="7.93"/></clipPath><clipPath id="clip-path-27"><rect class="cls-1" x="113.01" y="194.83" width="26.66" height="27.27"/></clipPath><clipPath id="clip-path-28"><rect class="cls-1" x="113.01" y="195.21" width="26.66" height="26.78"/></clipPath><clipPath id="clip-path-29"><rect class="cls-1" x="165.08" y="194.83" width="27.27" height="27.27"/></clipPath><clipPath id="clip-path-30"><rect class="cls-1" x="165.21" y="195.21" width="27.15" height="26.78"/></clipPath><clipPath id="clip-path-31"><rect class="cls-1" x="114.25" y="144.62" width="24.8" height="24.8"/></clipPath><clipPath id="clip-path-32"><rect class="cls-1" x="114.25" y="144.62" width="24.67" height="24.8"/></clipPath><clipPath id="clip-path-33"><rect class="cls-1" x="160.12" y="147.1" width="22.32" height="22.94"/></clipPath><clipPath id="clip-path-34"><rect class="cls-1" x="160.25" y="147.1" width="22.19" height="22.81"/></clipPath><clipPath id="clip-path-35"><rect class="cls-1" x="69" y="168.8" width="105.38" height="53.31"/></clipPath><clipPath id="clip-path-36"><rect class="cls-1" x="69" y="168.92" width="105.38" height="53.06"/></clipPath><clipPath id="clip-path-37"><rect class="cls-1" x="187.25" y="124.7" width="18.17" height="28.75"/></clipPath><clipPath id="clip-path-38"><rect class="cls-1" x="186.78" y="127.27" width="18.6" height="24.18"/></clipPath><clipPath id="clip-path-39"><rect class="cls-1" x="187.03" y="127.27" width="18.35" height="23.56"/></clipPath><clipPath id="clip-path-40"><rect class="cls-1" x="246.3" y="124.49" width="22.33" height="26.78"/></clipPath><clipPath id="clip-path-41"><rect class="cls-1" x="249.39" y="124.17" width="19.84" height="27.27"/></clipPath><clipPath id="clip-path-42"><rect class="cls-1" x="249.51" y="124.29" width="19.34" height="27.15"/></clipPath><clipPath id="clip-path-43"><rect class="cls-1" x="199.18" y="109.91" width="39.05" height="10.54"/></clipPath><clipPath id="clip-path-44"><rect class="cls-1" x="199.18" y="109.91" width="39.05" height="10.41"/></clipPath><clipPath id="clip-path-45"><rect class="cls-1" x="254.35" y="145.86" width="8.06" height="6.82"/></clipPath><clipPath id="clip-path-46"><rect class="cls-1" x="254.47" y="146.11" width="7.93" height="6.45"/></clipPath><clipPath id="clip-path-47"><rect class="cls-1" x="261.16" y="145.86" width="4.34" height="5.58"/></clipPath><clipPath id="clip-path-48"><rect class="cls-1" x="261.41" y="146.11" width="3.97" height="5.33"/></clipPath><clipPath id="clip-path-49"><rect class="cls-1" x="189.26" y="124.17" width="71.29" height="39.67"/></clipPath><clipPath id="clip-path-50"><rect class="cls-1" x="189.26" y="124.29" width="71.16" height="39.55"/></clipPath><clipPath id="clip-path-51"><path class="cls-1" d="M192.91,204.88c-.34.1-13.39,3.64-11,17,0,0-2.12-3.13-3-3.37s1.59,7,2.45,7.51c.69.38,6.11.82,11.1.33a22.31,22.31,0,0,0,3.29-.57Z"/></clipPath><clipPath id="clip-path-52"><rect class="cls-1" x="2.05" y="-192.59" width="357.05" height="454.37"/></clipPath><clipPath id="clip-path-54"><rect class="cls-1" x="182.95" y="201.94" width="16.04" height="26.15"/></clipPath><clipPath id="clip-path-55"><rect class="cls-1" x="182.44" y="204.13" width="13.64" height="22.94"/></clipPath><clipPath id="clip-path-56"><rect class="cls-1" x="182.56" y="204.75" width="13.39" height="22.19"/></clipPath><clipPath id="clip-path-59"><path class="cls-1" d="M206.39,176.48c-6.38,5.16-11,21.42-11,21.42s-13.31,13.67-3,28.48c0,0,45.21,3.23,59.86,0,0,0,10.18-20.53-5.1-49.09C247.15,177.25,212.78,171.31,206.39,176.48Z"/></clipPath><clipPath id="clip-path-62"><rect class="cls-1" x="248.2" y="183.72" width="9.35" height="28.99"/></clipPath><clipPath id="clip-path-63"><rect class="cls-1" x="248.15" y="183.68" width="9.92" height="29.13"/></clipPath><clipPath id="clip-path-64"><rect class="cls-1" x="248.15" y="183.68" width="9.79" height="29.13"/></clipPath><clipPath id="clip-path-65"><rect class="cls-1" x="246.91" y="204.75" width="18.6" height="22.94"/></clipPath><clipPath id="clip-path-66"><rect class="cls-1" x="246.53" y="204.75" width="18.84" height="23.18"/></clipPath><clipPath id="clip-path-67"><rect class="cls-1" x="190.5" y="135.32" width="75.01" height="61.99"/></clipPath><clipPath id="clip-path-68"><rect class="cls-1" x="190.99" y="135.7" width="74.39" height="61.49"/></clipPath><clipPath id="clip-path-69"><path class="cls-1" d="M212.8,170.45s-21.42-17-21.87-14c0,0-5.36,12.1,4.17,26.78C209.71,205.72,212.8,170.45,212.8,170.45Z"/></clipPath><clipPath id="clip-path-72"><rect class="cls-1" x="183.71" y="153.55" width="24.85" height="33.19"/></clipPath><clipPath id="clip-path-73"><rect class="cls-1" x="185.54" y="153.3" width="23.56" height="33.47"/></clipPath><clipPath id="clip-path-74"><rect class="cls-1" x="185.54" y="153.55" width="23.31" height="33.23"/></clipPath><clipPath id="clip-path-75"><rect class="cls-1" x="190.92" y="171.4" width="12.14" height="14.51"/></clipPath><clipPath id="clip-path-76"><rect class="cls-1" x="190.5" y="171.28" width="13.02" height="14.88"/></clipPath><clipPath id="clip-path-77"><rect class="cls-1" x="190.5" y="171.4" width="12.89" height="14.75"/></clipPath><clipPath id="clip-path-78"><rect class="cls-1" x="192.75" y="175.37" width="62.63" height="30.51"/></clipPath><clipPath id="clip-path-79"><rect class="cls-1" x="192.36" y="175" width="63.23" height="30.99"/></clipPath><clipPath id="clip-path-80"><rect class="cls-1" x="192.48" y="175.37" width="62.98" height="30.62"/></clipPath><clipPath id="clip-path-81"><path class="cls-1" d="M201.58,181.72s-5.83,11.84-6.72,15.57c0,0-.95.06-1,.61v.54a2,2,0,0,0-1.14,1.13,3,3,0,0,0,0,1.72,69.49,69.49,0,0,1,21-3.15c12.1,0,26.21,7.14,30.22,7.21a98.07,98.07,0,0,0,11.6-1.11s-.46-13-4.89-18.8C250.69,185.43,236,174.92,201.58,181.72Z"/></clipPath><clipPath id="clip-path-84"><rect class="cls-1" x="234.78" y="187.74" width="23.88" height="20.31"/></clipPath><clipPath id="clip-path-85"><rect class="cls-1" x="234.51" y="187.4" width="21.7" height="18.6"/></clipPath><clipPath id="clip-path-86"><rect class="cls-1" x="234.63" y="187.4" width="21.32" height="17.98"/></clipPath><clipPath id="clip-path-88"><rect class="cls-1" x="197.82" y="191.1" width="37.13" height="8.66"/></clipPath><clipPath id="clip-path-89"><rect class="cls-1" x="197.32" y="190.49" width="37.81" height="9.3"/></clipPath><clipPath id="clip-path-90"><rect class="cls-1" x="197.44" y="190.74" width="37.69" height="9.05"/></clipPath><clipPath id="clip-path-91"><path class="cls-1" d="M260,156.82c-3.78-13-14.28-24.69-28.67-27.37s-28.38,4.46-36.6,15.17-9.36,17-9.36,17,4.46,22.41,34.74,28,42.5-13.67,42.5-13.67S263.79,169.83,260,156.82Z"/></clipPath><clipPath id="clip-path-94"><rect class="cls-1" x="179.1" y="157.48" width="95.74" height="38.42"/></clipPath><clipPath id="clip-path-95"><rect class="cls-1" x="184.92" y="157.02" width="79.35" height="39.05"/></clipPath><clipPath id="clip-path-96"><rect class="cls-1" x="185.04" y="157.02" width="78.85" height="38.43"/></clipPath><clipPath id="clip-path-97"><rect class="cls-1" x="221.4" y="189.13" width="30.89" height="4.95"/></clipPath><clipPath id="clip-path-98"><rect class="cls-1" x="220.87" y="188.63" width="31.61" height="5.58"/></clipPath><clipPath id="clip-path-99"><rect class="cls-1" x="221.24" y="188.76" width="31.24" height="5.45"/></clipPath><clipPath id="clip-path-100"><rect class="cls-1" x="199.96" y="184.44" width="21.24" height="6.66"/></clipPath><clipPath id="clip-path-101"><rect class="cls-1" x="199.8" y="184.3" width="21.7" height="6.82"/></clipPath><clipPath id="clip-path-102"><rect class="cls-1" x="199.92" y="184.3" width="21.32" height="6.82"/></clipPath><clipPath id="clip-path-103"><path class="cls-1" d="M141.46,138.51c-9.16-10.71-25-15.17-38.05-11.24s-19.52,16.07-21.26,30a67.79,67.79,0,0,0,2.39,26.48c14,10.38,39.42,4.93,39.42,4.93s24.48-15.36,30.39-31.72C154.35,157,150.62,149.19,141.46,138.51Z"/></clipPath><clipPath id="clip-path-106"><rect class="cls-1" x="79.54" y="139.67" width="39.14" height="51.85"/></clipPath><clipPath id="clip-path-107"><rect class="cls-1" x="80.78" y="139.66" width="38.43" height="52.07"/></clipPath><clipPath id="clip-path-108"><rect class="cls-1" x="80.9" y="139.66" width="38.18" height="52.07"/></clipPath><clipPath id="clip-path-109"><path class="cls-1" d="M153.72,204.3s5.15,10.18-8.35,22.67H141s-22-1.92-24.2-18.58C116.84,208.38,139.77,192.39,153.72,204.3Z"/></clipPath><clipPath id="clip-path-112"><rect class="cls-1" x="133.15" y="203.31" width="23.39" height="21.99"/></clipPath><clipPath id="clip-path-113"><rect class="cls-1" x="132.85" y="202.89" width="24.18" height="22.94"/></clipPath><clipPath id="clip-path-114"><rect class="cls-1" x="132.97" y="203.14" width="23.8" height="22.32"/></clipPath><clipPath id="clip-path-115"><path class="cls-1" d="M121.15,208.8c-2-8.58-14.28-11-14.28-11l-1.14-9.71s-10,2.39-12.23,6.05-6.25,6.66-5.57,14.44c1.47,16.73,14.28,19.28,14.28,19.28h6.31C120.24,221.61,121.74,211.14,121.15,208.8Z"/></clipPath><clipPath id="clip-path-118"><rect class="cls-1" x="81.69" y="193.85" width="20.53" height="33.97"/></clipPath><clipPath id="clip-path-119"><rect class="cls-1" x="86.36" y="193.59" width="16.12" height="34.71"/></clipPath><clipPath id="clip-path-120"><rect class="cls-1" x="86.98" y="193.72" width="15.25" height="34.22"/></clipPath><clipPath id="clip-path-121"><rect class="cls-1" x="88.5" y="199.23" width="8.27" height="3"/></clipPath><clipPath id="clip-path-122"><rect class="cls-1" x="88.22" y="199.17" width="8.68" height="3.1"/></clipPath><clipPath id="clip-path-123"><rect class="cls-1" x="88.34" y="199.17" width="8.43" height="3.1"/></clipPath><clipPath id="clip-path-124"><path class="cls-1" d="M96,183.29s-3.75,6.55-4.59,9.43-3.12,7.19-3.05,7.79-.35.61-.35,1a.89.89,0,0,0,.47.71s11.85-4.1,22.41-4.86,17-7.14,24.1-7.84,9.27.51,9.27.51.29-.74,0-1.06c0,0,.27-.64.12-.83a2,2,0,0,0-.57-.38s.16-5.59-8.44-15.48C135.38,172.29,110.74,173.19,96,183.29Z"/></clipPath><clipPath id="clip-path-127"><rect class="cls-1" x="85.67" y="175.75" width="26.31" height="27.23"/></clipPath><clipPath id="clip-path-128"><rect class="cls-1" x="87.6" y="175.62" width="24.8" height="27.27"/></clipPath><clipPath id="clip-path-129"><rect class="cls-1" x="87.84" y="175.62" width="24.3" height="26.66"/></clipPath><clipPath id="clip-path-130"><rect class="cls-1" x="87.25" y="193.85" width="8.62" height="7.77"/></clipPath><clipPath id="clip-path-131"><rect class="cls-1" x="87.6" y="193.59" width="8.68" height="8.06"/></clipPath><clipPath id="clip-path-132"><rect class="cls-1" x="87.84" y="193.72" width="8.43" height="7.93"/></clipPath><clipPath id="clip-path-133"><rect class="cls-1" x="95.66" y="173.14" width="58.89" height="43.39"/></clipPath><clipPath id="clip-path-134"><rect class="cls-1" x="95.78" y="173.14" width="58.76" height="43.39"/></clipPath><clipPath id="clip-path-135"><rect class="cls-1" x="108.05" y="179.34" width="24.18" height="32.85"/></clipPath><clipPath id="clip-path-136"><rect class="cls-1" x="108.18" y="179.34" width="23.8" height="32.73"/></clipPath><clipPath id="clip-path-137"><path class="cls-1" d="M112.27,184.34a25,25,0,0,0,3.38,5.2c7,9.08,6.8,14,16.24,22.24l1.27-.39s-.25.89-1.73,1.18c-12.59,3.2-22.95.89-29.07-3.78-6.25-4.84-10.6-10.18-10.93-25.79C100.74,167.43,112.27,184.34,112.27,184.34Z"/></clipPath><clipPath id="clip-path-139"><rect class="cls-1" x="88.18" y="182.25" width="45.21" height="40.43"/></clipPath><clipPath id="clip-path-140"><rect class="cls-1" x="91.32" y="181.82" width="42.15" height="34.71"/></clipPath><clipPath id="clip-path-141"><rect class="cls-1" x="91.32" y="181.82" width="42.15" height="34.09"/></clipPath><clipPath id="clip-path-142"><rect class="cls-1" x="93.61" y="196.81" width="7.69" height="5.74"/></clipPath><clipPath id="clip-path-143"><rect class="cls-1" x="93.8" y="196.69" width="8.06" height="6.2"/></clipPath><clipPath id="clip-path-144"><rect class="cls-1" x="93.8" y="196.69" width="7.93" height="5.95"/></clipPath><clipPath id="clip-path-145"><rect class="cls-1" x="85.53" y="177.66" width="15.38" height="24.43"/></clipPath><clipPath id="clip-path-146"><rect class="cls-1" x="85.12" y="177.48" width="16.12" height="24.18"/></clipPath><clipPath id="clip-path-147"><rect class="cls-1" x="85.36" y="177.48" width="15.87" height="23.56"/></clipPath><clipPath id="clip-path-148"><rect class="cls-1" x="83.88" y="122.31" width="66.95" height="2.48"/></clipPath><clipPath id="clip-path-149"><rect class="cls-1" x="83.88" y="122.31" width="66.45" height="2.48"/></clipPath><clipPath id="clip-path-150"><rect class="cls-1" x="108.05" y="108.05" width="17.98" height="4.96"/></clipPath><clipPath id="clip-path-151"><rect class="cls-1" x="108.18" y="108.05" width="17.85" height="4.84"/></clipPath><clipPath id="clip-path-152"><rect class="cls-1" x="80.16" y="94.41" width="73.15" height="30.37"/></clipPath><clipPath id="clip-path-153"><rect class="cls-1" x="80.41" y="94.54" width="72.9" height="30.25"/></clipPath><clipPath id="clip-path-154"><rect class="cls-1" x="85.74" y="119.21" width="61.99" height="6.2"/></clipPath><clipPath id="clip-path-155"><rect class="cls-1" x="85.86" y="119.33" width="61.86" height="5.95"/></clipPath></defs><title>Artboard 1</title><g id="Layer_1" data-name="Layer 1"><rect class="cls-2" x="168.97" y="102.89" width="91.94" height="69.63"/><rect class="cls-3" x="235.03" y="102.89" width="25.89" height="69.63"/><path class="cls-4" d="M252,136.81v8.93h1.79v0h.89v-6.25h.89v6.25h.89v-8.93Zm-1.79,2.68h.89V144h-.89Zm-1.43-2.68v11.6h1.43v-2.68h.89v-8.93Zm-3,8.93h.89v-6.25h.89v6.25h.89v-8.93h-2.68Zm-1-10.71h11.71v13.39H251.1v1.79h-2.68v-1.79h-3.57V134.72Z"/><g class="cls-5"><g class="cls-6"><g class="cls-7"><polygon points="260.92 137.9 226.36 172.52 260.92 172.52 260.92 137.9"/></g></g></g><rect class="cls-8" x="247.53" y="102.89" width="6.25" height="17.85"/><rect class="cls-2" x="226.76" y="105.17" width="60.17" height="60.17"/><rect class="cls-9" x="250.94" y="105.17" width="15.79" height="15.04"/><path class="cls-10" d="M244,99.56c6.38,5.16,11.11,22.66,11.11,22.66s12.42,14.51,3.08,29.71c0,0-48.79,1.9-63.44-1.34,0,0-8.17-15.1,4.2-32.77a14.11,14.11,0,0,0,1-1.62c5.61-10.85,16.24-18.3,28.45-18.75,6.81-.3,13.14.09,15.63,2.1Z"/><path class="cls-11" d="M284.23,80l-47,12.26-10.41,10.56,1.6,7.63,18.83,7.28,13.93-1.07,10.05-6S289.23,89.52,284.23,80Z"/><g class="cls-12"><g class="cls-5"><g class="cls-13"><g class="cls-14"><path d="M285.2,83.5l-1.08-.18s-14.76,33.58-45.8,25.6L237,115.17l20.68,4S282.46,103,285.2,83.5Z"/></g></g></g></g><path class="cls-15" d="M250.54,91l2.73-.63s9.62,12.63,4.83,23.31c0,0-2,.65-2.35.7C255.76,114.36,258.24,99.73,250.54,91Z"/><g class="cls-16"><g class="cls-17"><g class="cls-18"><g class="cls-19"><path d="M259.76,108s-3.17,1.49-4.38,1.44-.82,4.61-.82,4.61l1,.7h3Z"/></g></g></g></g><path class="cls-20" d="M251.53,90.83s8.66,12.39,4.76,23.34a1,1,0,0,1-.29.45c-.39.24-19.29,4.26-22.21-8.63s17.13-15.3,17.13-15.3S251.35,90.58,251.53,90.83Z"/><g class="cls-21"><g class="cls-17"><g class="cls-22"><g class="cls-23"><path d="M258,108.3a31.24,31.24,0,0,1-14.24,1.26c-7.26-1.27-.62,6.74-.62,6.74l9.37.47,4.76-2.05Z"/></g></g></g></g><g class="cls-17"><g class="cls-24"><g class="cls-25"><path d="M260.55,80.22s-8,27.79-28.36,28.13l-4.63-17.08Z"/></g></g></g><path class="cls-10" d="M196.83,47.66l7.67,3.4-2.3,8.34-8.81,4S193.4,54.87,196.83,47.66Z"/><polygon class="cls-11" points="203.98 52.95 204.5 51.06 196.83 47.66 200.18 55.73 203.98 52.95"/><path class="cls-10" d="M186.3,73.07c4-12.94,14.76-24.39,29.19-26.78s28.28,5,36.28,15.92,9,17.15,9,17.15-4.91,22.32-35.28,27.35-42.27-14.49-42.27-14.49S182.27,86,186.3,73.07Z"/><g class="cls-26"><g class="cls-5"><g class="cls-27"><g class="cls-28"><path d="M181.21,92l2.08.3s13.76,12.62,35.38,8.46,42.12-21.33,42.12-21.33l.41,4.1-12,18.55-31.09,7.52s-30.5-5.13-30.59-5.36S181.21,92,181.21,92Z"/></g></g></g></g><path class="cls-10" d="M239.75,44.86l-6.05,5.61,4.79,7,9.48.95S245.25,50.49,239.75,44.86Z"/><polygon class="cls-11" points="234.79 52.07 233.7 50.47 239.75 44.86 239.21 53.44 234.79 52.07"/><g class="cls-17"><g class="cls-29"><g class="cls-30"><path d="M202.33,112.67c-.17.22-4.82,7.27-4.82,7.27a50,50,0,0,1,18.88-3.63c10.88,0,26.85,5.53,28.28,6s.34-4.81.34-4.81Z"/></g></g></g><path class="cls-31" d="M204.27,103.19A64,64,0,0,1,244,99.56s6.7,3,11.6,22.66a17.53,17.53,0,0,1-9.42.52c-4.76-1.23-28.12-12.87-48.59-2.8a2.15,2.15,0,0,1,0-1c.13-.42,1.29-1.47,1.42-1.74,0,0-.34-.34-.19-.49s.49-.19.64-.53a48.4,48.4,0,0,0,2.57-6.46C202.38,108,204,103.33,204.27,103.19Z"/><g class="cls-17"><g class="cls-32"><g class="cls-33"><path d="M243.75,101.35s5,8.49,4,10.71-5,3.33-.71,4.61,6.59,4.08,4.55,4.31-10.43-3.1-13.45-3.25,8.6,4.29,10.08,4.46,6.93.31,9.12-1.36-8.55-20-8.55-20Z"/></g></g></g><g class="cls-17"><g class="cls-34"><g class="cls-35"><path d="M198.78,115.51c.15-.22,16.33-9.37,34.17-3.57,0,0-12.77-3-33.56,4.27s-3.27,1.85-3.27,1.85l2.81-.83s20.49-9.25,41.72-.15c0,0-22.07-7.44-43.92,1.45L187.19,121s2.36-3.82,2.68-3.82S198.78,115.51,198.78,115.51Z"/></g></g></g><g class="cls-17"><g class="cls-36"><g class="cls-37"><path d="M202.64,103.87l-.76,3.86s5.08-6,17.28-6.88,29,2.2,29,2.2L245,99.42s-13.1-2.81-25.15-2S202.64,103.87,202.64,103.87Z"/></g></g></g><g class="cls-17"><g class="cls-38"><g class="cls-39"><path d="M203,103.43l-.37-.25s3.84-5.58,14.84-6.58S242.9,98.06,245,98.73l-27.67,1.16Z"/></g></g></g><path class="cls-40" d="M202.64,103.18l-.76,3.86s5.08-6,17.28-6.88,29,2.2,29,2.2L245,98.73s-13.1-2.8-25.15-2S202.64,103.18,202.64,103.18Z"/><rect class="cls-2" x="245.32" y="164.88" width="60.17" height="60.17"/><rect class="cls-3" x="245.32" y="164.89" width="21.42" height="60.17"/><path class="cls-4" d="M262.51,134.44v7.7h3.66v-5.78H268v5.78h1.79v-5.77h1.84v5.77h1.83v-7.7Zm-5.58,1.87h1.92v4h-1.92Zm-3.62-1.87v9.72H257v-1.94h3.69v-7.78Zm-9.13,7.75h3.65v-5.83h1.84v5.83h1.79v-7.7h-7.31v7.7Zm-1.88-9.69h33.09v11.67H258.85V146h-7.35v-1.87h-9.19Z"/><rect class="cls-9" x="279.59" y="164.77" width="15.79" height="15.04"/><path class="cls-41" d="M97.86,98.82c22.45,16.07,52.91,14.93,76,1.11-8.77-8.5-21.21-13.59-39.16-13.59C118.88,86.33,106.56,91.73,97.86,98.82Z"/><path class="cls-41" d="M119.41,125.21a54.65,54.65,0,0,0-3.26-17.75c-1.17-.35-2.34-.67-3.5-1.08,1.38,6.4,3.3,12.59,4.86,18.83Z"/><path class="cls-42" d="M155.71,107.53a70.71,70.71,0,0,1-39.56,0,54.22,54.22,0,0,1,3.26,17.68h37.82C153.69,119.85,152.35,113.49,155.71,107.53Zm-43.06-1.23a69.81,69.81,0,0,1-14.79-7.41c-.21.18-.42.46-.62.63-10.1,8.85-3.57,25.68,9.9,25.68h10.37C116,119,114,112.7,112.65,106.3Z"/><path class="cls-41" d="M160.71,105.9c-1.65.61-3.32,1.22-5,1.7-3.37,6-2,12.25,1.51,17.6h7C160.74,119,158.66,112.43,160.71,105.9Z"/><path class="cls-42" d="M173,99.92a74,74,0,0,1-12.3,6c-2,6.53,0,13.06,3.57,19.31h2A13,13,0,0,0,177.7,106,27.51,27.51,0,0,0,173,99.92Z"/><path class="cls-42" d="M154.69,28.19,149,31.92l3,6.36,7.57,2A33.84,33.84,0,0,0,154.69,28.19Z"/><polygon class="cls-41" points="149.7 33.37 149.03 31.92 154.7 28.19 153.1 35.08 149.7 33.37"/><path class="cls-42" d="M112.44,28.19l5.65,3.73-2.95,6.36-7.57,2A33.84,33.84,0,0,1,112.44,28.19Z"/><polygon class="cls-41" points="117.44 33.37 118.11 31.92 112.44 28.19 114.04 35.08 117.44 33.37"/><path class="cls-42" d="M169.47,54.69C162.88,39.77,149.39,28,133.57,28s-29.31,11.76-35.9,26.67-6.61,32.8-6.61,32.8c12,16.17,42.51,16,42.51,16s30.47.17,42.54-16C176.12,87.49,176.07,69.64,169.47,54.69Z"/><path class="cls-41" d="M169.47,54.69C162.88,39.77,149.39,28,133.57,28s-29.31,11.76-35.9,26.67c-4.06,9.2-5.62,19.52-6.25,26.08A25.55,25.55,0,0,0,101.81,84a96.3,96.3,0,0,0,10.93.56c3.17,0,6.25-.12,9.56-.23,3.57-.13,7.28-.27,11.39-.27s7.81.13,11.39.27c3.28.12,6.39.23,9.56.23A96.28,96.28,0,0,0,165.5,84a25.73,25.73,0,0,0,10.25-3.17C175.12,74.31,173.55,63.94,169.47,54.69Z"/><path class="cls-41" d="M168.56,87a59.28,59.28,0,0,1-9.64,12.09c6.58-2.37,13-6,17.16-11.6,0,0,0-17.85-6.6-32.8C165.18,45,157.94,36.61,149,31.92,149.43,32.15,169.17,44.81,168.56,87Zm-70,0a59.28,59.28,0,0,0,9.64,12.09c-6.58-2.37-13-6-17.16-11.6,0,0,0-17.85,6.6-32.8C102,45,109.17,36.61,118.09,31.92,117.72,32.15,98,44.81,98.58,87Z"/><ellipse class="cls-41" cx="133.57" cy="96.62" rx="12.51" ry="6.04"/><ellipse cx="133.57" cy="95.45" rx="12.51" ry="6.04"/><circle class="cls-43" cx="118.28" cy="87.69" r="2.68"/><circle cx="118.76" cy="88.19" r="2.04"/><circle class="cls-44" cx="118.93" cy="87.68" r="0.66"/><circle class="cls-43" cx="148.99" cy="87.69" r="2.68"/><circle cx="148.52" cy="88.19" r="2.04"/><circle class="cls-44" cx="148.34" cy="87.68" r="0.66"/><path class="cls-45" d="M179.69,70.64c0-1.79-3.1-3.21-3.1-3.21l-42.93-.11-43.1.18S88,69,87.67,70.76h.07v1.79h-.23c.1,1.79,3.69,7.63,14.45,8.83,10.92,1.21,19.64,0,31.68,0s20.76,1.28,31.68.06,14.36-7.11,14.46-8.89h-.1v-1.9Z"/><path class="cls-46" d="M176.55,65.79l-42.91-.08-43.09.08s-3.05,2.3-3.05,4.73,3.57,7.89,14.46,9.1,19.64.06,31.68.06,20.76,1.15,31.68-.06,14.46-6.68,14.46-9.1S176.55,65.79,176.55,65.79Z"/><path class="cls-46" d="M133.27,26.22c-23.74,0-42.85,15.17-42.85,33.8v8.62c0,2.52,19.1,4.57,42.85,4.57s42.85-2,42.85-4.55V60C176.12,41.35,157,26.22,133.27,26.22Z"/><path class="cls-47" d="M95.68,57.37c0-10.71,7-21.27,17.9-27.39C99.89,35.62,90.42,47,90.42,60v8.62c0,.77,1.79,1.5,5.36,2.13V57.39Z"/><path class="cls-47" d="M171.6,57.37c0-10.71-7.36-21.27-18.27-27.39,13.69,5.65,22.79,17,22.79,30v8.62c0,.77-1.79,1.5-4.46,2.13V57.39Z"/><path class="cls-46" d="M132.28,55.09a2.22,2.22,0,0,1-4.19,1.49L118.27,29a2.22,2.22,0,0,1,4.19-1.49Z"/><path class="cls-47" d="M120.66,26a2.22,2.22,0,0,1,1.79,1.45l9.82,27.59a2.22,2.22,0,0,1-.49,2.28Zm-1.88.67a2.22,2.22,0,0,0-.49,2.28l9.82,27.59A2.22,2.22,0,0,0,129.89,58Z"/><path class="cls-46" d="M135,55.09a2.22,2.22,0,0,0,4.19,1.49L149,29a2.22,2.22,0,0,0-4.19-1.49Z"/><path class="cls-47" d="M146.6,26a2.22,2.22,0,0,0-1.79,1.45L135,55.09a2.22,2.22,0,0,0,.49,2.28Zm1.85.67a2.22,2.22,0,0,1,.49,2.28l-9.82,27.59A2.22,2.22,0,0,1,137.33,58Z"/><path class="cls-46" d="M137.73,49.79A2.22,2.22,0,0,1,135.51,52h-3.57a2.22,2.22,0,0,1-2.24-2.22V26.58a2.22,2.22,0,0,1,2.22-2.24h3.57a2.22,2.22,0,0,1,2.24,2.22Z"/><path class="cls-47" d="M135.95,24.12a2.31,2.31,0,0,1,1.79,2.19V49.65a2.31,2.31,0,0,1-1.79,2.19Zm-4.46,0a2.31,2.31,0,0,0-1.79,2.19V49.65a2.31,2.31,0,0,0,1.79,2.19Z"/><path class="cls-45" d="M133.56,73.84c-11.69,0-22.69-.48-31-1.36A73.27,73.27,0,0,1,93.1,71c-2.68-.68-4-1.43-4-2.38a.75.75,0,0,1,1.47,0s.52,1.44,12.15,2.68a302,302,0,0,0,30.78,1.35c11.63,0,22.57-.48,30.78-1.35,11.6-1.23,12.15-2.68,12.15-2.68a.75.75,0,0,1,1.47,0c0,.95-1.26,1.7-4,2.38a73.28,73.28,0,0,1-9.48,1.49C156.25,73.36,145.25,73.84,133.56,73.84Z"/><rect class="cls-2" x="69" y="168.95" width="70.52" height="52.67"/><g class="cls-5"><g class="cls-48"><g class="cls-49"><polygon points="139.52 195.22 113.03 221.61 139.52 221.61 139.52 195.22"/></g></g></g><rect class="cls-9" x="95.78" y="168.95" width="16.96" height="13.39"/><path class="cls-4" d="M107.38,194.83v6.25H111v-4.46h1.79v4.46h1.79v-4.46h1.79v4.46h1.79v-6.25Zm-5.36.89h1.79v3.57H102Zm-2.9-.89v8h3.79v-1.79h2.68v-6.25Zm-8.7,6.25H94v-4.46h1.79v4.46h1.79v-6.25H90.42Zm-1.79-8h31.24v9.82H103.81v1.79H97.56v-1.79H88.64Z"/><rect class="cls-3" x="121.67" y="168.95" width="70.52" height="52.67"/><rect class="cls-2" x="121.67" y="168.95" width="52.67" height="52.67"/><g class="cls-5"><g class="cls-50"><g class="cls-51"><polygon points="192.18 195.22 165.34 221.61 192.18 221.61 192.18 195.22"/></g></g></g><path class="cls-4" d="M149.38,194.83v6.25h2.68v-4.46h1.79v4.46h1.79v-4.46h1.79v4.46h1.79v-6.25Zm-5.36.89h1.79v3.57H144Zm-2.87-.89v8H144v-1.79h3.57v-6.25Zm-8,6.25h2.82v-4.46h1.79v4.46h1.79v-6.25h-6.25v6.46Zm-1.64-8h29.46v9.82H145.77v1.79h-6.25v-1.79h-8V193Z"/><rect class="cls-9" x="138.63" y="168.95" width="14.28" height="13.39"/><rect class="cls-2" x="190.4" y="169.84" width="69.63" height="53.56"/><rect class="cls-3" x="225.21" y="169.84" width="34.81" height="53.56"/><path class="cls-4" d="M247.53,195.73v7.14h2.68v-5.36h.89v5.36H252v-5.36h.89v5.36h1.79v-7.14ZM244,197.51h1.79v3.57H244Zm-1.79-1.79v8.93H244v-1.79h2.68v-7.14Zm-5.36,7.14h1.79v-5.36h1.79v5.36h.89v-7.14h-4.46Zm-.89-8.93h19.64v10.71h-9.82v1.79h-4.46v-1.79h-5.36Z"/><rect class="cls-8" x="240.39" y="169.84" width="9.82" height="13.39"/><rect class="cls-3" x="74.36" y="120.75" width="64.27" height="48.2"/><rect class="cls-2" x="74.36" y="120.75" width="48.2" height="48.2"/><g class="cls-5"><g class="cls-52"><g class="cls-53"><polygon points="138.63 144.87 114.35 168.95 138.63 168.95 138.63 144.87"/></g></g></g><path class="cls-4" d="M99.31,144v6.25h3.57v-4.46h.89v4.46h1.79v-4.46h1.79v4.46h.89V144Zm-4.46,1.79h1.79v3.57H94.89ZM92.34,144v8h2.54V150.2h3.57V144Zm-7.27,6.25h2.68v-4.46h1.79v4.46h1.79V144H85.07v6.25Zm-1.79-7.14h26.78V152H96.67v1.79H91.32V152h-8Z"/><rect class="cls-9" x="90.42" y="120.75" width="12.5" height="12.5"/><rect class="cls-3" x="123.45" y="125.21" width="58.91" height="44.63"/><rect class="cls-2" x="123.45" y="125.21" width="29.46" height="44.63"/><path class="cls-4" d="M137.72,146.63v6.25h1.79v-4.46h.89v4.46h.89v-4.46h.89v4.46h.89v-6.25ZM135,148.42h.89v2.68h-.88Zm-1.79-1.79-.29,7.14h2.09v-.89h1.79v-6.25h-3.58Zm-4.93,6.25h2.26v-4.46h.89v4.46h.89v-6.25h-4.46v6Zm-.95-7.14H144v8h-8v1.79h-3.57v-1.79H127v-8.38Z"/><g class="cls-5"><g class="cls-54"><g class="cls-55"><polygon points="182.36 147.44 160.36 169.84 182.36 169.84 182.36 147.44"/></g></g></g><rect class="cls-9" x="131.48" y="125.21" width="8.03" height="10.71"/><g class="cls-17"><g class="cls-56"><g class="cls-57"><polygon points="168.58 169.84 136.84 169.84 136.84 168.95 69 168.95 69 221.61 135.47 221.61 174.33 221.68 174.33 169.84 168.58 169.84"/></g></g></g><ellipse class="cls-11" cx="198.13" cy="139.45" rx="16.47" ry="16.94" transform="translate(-21.51 37.17) rotate(-10.17)"/><g class="cls-58"><g class="cls-5"><g class="cls-59"><g class="cls-60"><path d="M199.9,124.7l-7.3,7.73s-5.36,11.38,3.53,21l9.29-4.9Z"/></g></g></g></g><path class="cls-61" d="M185.77,141.37l2.68.85s3.57,5,4.56,9.55a36.59,36.59,0,0,0-4.05-.51Z"/><ellipse class="cls-11" cx="256.68" cy="140.29" rx="16.94" ry="16.47" transform="translate(73.28 368.17) rotate(-79.83)"/><g class="cls-62"><g class="cls-5"><g class="cls-63"><g class="cls-64"><path d="M251.81,124.49l5.44.89s11.39,12.36,1.84,25.89l-12.78-2.86Z"/></g></g></g></g><path class="cls-61" d="M269,142.19l-2.68.85s-3.57,5-4.56,9.55a36.6,36.6,0,0,1,4.05-.51Z"/><g class="cls-17"><g class="cls-65"><g class="cls-66"><path d="M200.27,114.27c-.36.89-.73,1.79-1.09,2.68a63.74,63.74,0,0,1,39,3S220.75,109.93,200.27,114.27Z"/></g></g></g><g class="cls-17"><g class="cls-67"><g class="cls-68"><polygon points="261.63 147.03 262 146.19 254.81 149.29 255.57 152.49 261.63 147.03"/></g></g></g><g class="cls-17"><g class="cls-69"><g class="cls-70"><path d="M262,146.19s2.6,1.59,3.28,3.4l-1.1,1.71-2.55-1,.37-4.12"/></g></g></g><g class="cls-17"><g class="cls-71"><g class="cls-72"><path d="M257.55,150.4c-1.17-5.42-2.05-6.83-6-11.33A24.92,24.92,0,0,0,250,134l-2.44,1a34.05,34.05,0,0,0-34-6.32l-1.94-1.87a24.91,24.91,0,0,0-3.36,4.19c-5.27,2.79-13.39,10.81-14.81,15.54C189.4,159.49,260.4,163.65,257.55,150.4Z"/></g></g></g><g class="cls-73"><g class="cls-74"><ellipse class="cls-10" cx="190.21" cy="216.62" rx="16.47" ry="16.94"/></g></g><g class="cls-73"><g class="cls-75"><g class="cls-5"><g class="cls-76"><g class="cls-77"><path d="M197.78,201.94l-8.33,2.94S183,217,190,228.08l9-1.66Z"/></g></g></g></g></g><g class="cls-73"><g class="cls-74"><path class="cls-78" d="M177.72,216.31l2.46,1.3s2.68,5.56,2.8,10.21a36.6,36.6,0,0,0-3.9-1.22Z"/></g></g><g class="cls-79"><g class="cls-74"><rect class="cls-10" x="182.36" y="165.38" width="77.66" height="68.73"/><path class="cls-80" d="M179.88,206.76a54.45,54.45,0,0,1,15.47-8.93,50.75,50.75,0,0,1,39.6,1c30,13.51-7.77,39.78-7.77,39.78l-34.51-4.46Z"/></g></g><g class="cls-79"><g class="cls-81"><g class="cls-5"><g class="cls-82"><g class="cls-83"><path d="M248.71,184.58S252,206,248.2,212.71l9.35-6.68s-4.18-19.82-5.74-22.32Z"/></g></g></g></g></g><path class="cls-10" d="M237.56,211.07a13.09,13.09,0,0,1,11.55-6.31c7.08,0,12.81,5,12.81,11.12,0,5.36-4.39,10.27-10.12,11.16s-17,.79-17,.79C232.13,225.85,235.22,215.25,237.56,211.07Z"/><g class="cls-5"><g class="cls-84"><g class="cls-85"><path d="M249.12,227.2c16.07-9.5,2.68-22.18,2.68-22.19,5.78,1.08,10.1,5.53,10.1,10.87s-4.39,10.27-10.12,11.16c-.89.13-1.91.25-3,.35Z"/><ellipse cx="251.72" cy="222.62" rx="4.49" ry="4.02" transform="translate(-66.93 329.3) rotate(-60)"/></g></g></g><ellipse class="cls-78" cx="251.21" cy="223.54" rx="4.49" ry="4.02" transform="translate(-67.98 329.33) rotate(-60)"/><ellipse class="cls-86" cx="250.69" cy="224.45" rx="2.72" ry="2.44" transform="translate(-69.04 329.33) rotate(-60)"/><path class="cls-11" d="M234.4,175.93s14.78-19.69,27.59-29.73c8.93,11.34,2.76,30.6,1.33,33.27-4,7.41-5.9,11.06-22.24,17.22C215.94,206.15,234.4,175.93,234.4,175.93Z"/><path class="cls-20" d="M257.94,179.66a22.22,22.22,0,0,0,4.23,2.05s.35-.23,0,.63-3.75,7.19-9.94,9.31l-5.29-4.81,8.24-7.14Z"/><path class="cls-15" d="M258.29,178.37a27.79,27.79,0,0,0,4.4,2.28l-.52.95a10.81,10.81,0,0,1-3.88-1.61C256.62,178.78,258.29,178.37,258.29,178.37Z"/><g class="cls-5"><g class="cls-87"><g class="cls-88"><path d="M261.14,158.66A41.06,41.06,0,0,0,250,140.32c-4.77-4.46-58.91,45.58-28.68,51.2s42.5-13.67,42.5-13.67S264.92,171.68,261.14,158.66Z"/></g></g></g><g class="cls-89"><g class="cls-74"><path class="cls-90" d="M212.8,170.45s-21.42-17-21.87-14c0,0-5.36,12.1,4.17,26.78C209.71,205.72,212.8,170.45,212.8,170.45Z"/></g></g><g class="cls-89"><g class="cls-91"><g class="cls-5"><g class="cls-92"><g class="cls-93"><path d="M185.41,166.31s6.82,16.74,21.2,20.43l2-20.43-4.42-12.76-20.43,2.95Z"/></g></g></g></g></g><path class="cls-20" d="M199.13,176.2a14.51,14.51,0,0,1-6.58,2.48v.53c0,.65,3.89,8.47,6.46,9.5l3.88-7v-5.8Z"/><path class="cls-15" d="M198.57,175.34a33.69,33.69,0,0,1-6.58,2,6.06,6.06,0,0,0,.61,1.36,15.47,15.47,0,0,0,6.62-2.05Z"/><g class="cls-94"><g class="cls-5"><g class="cls-95"><g class="cls-96"><path d="M190.92,171.4s3.95,11.46,9.82,14.51l2.32-7.26Z"/></g></g></g></g><g class="cls-97"><g class="cls-17"><g class="cls-98"><g class="cls-99"><path d="M201.58,182.18s-5.83,11.84-6.72,15.55c0,0-.95.06-1,.61v.54a2.4,2.4,0,0,0-.52,1,8.12,8.12,0,0,1-.62,1.39,80.09,80.09,0,0,1,21-2.68c12.1,0,26.21,7.14,30.22,7.21s11.37-1.56,11.37-1.56-.23-12.5-4.66-18.34C250.69,185.88,236,175.37,201.58,182.18Z"/></g></g></g></g><g class="cls-100"><g class="cls-74"><path class="cls-31" d="M201.58,181.72s-5.83,11.84-6.72,15.57c0,0-.95.06-1,.61v.54a2,2,0,0,0-1.14,1.13,3,3,0,0,0,0,1.72,69.49,69.49,0,0,1,21-3.15c12.1,0,26.21,7.14,30.22,7.21a98.07,98.07,0,0,0,11.6-1.11s-.46-13-4.89-18.8C250.69,185.43,236,174.92,201.58,181.72Z"/><path class="cls-44" d="M236,193.42l-.12,1.31.65.06.1-1h.33l-.1,1h.33l.1-1h.33l-.1,1h.33l.12-1.31Zm-1,.22h.35l-.06.68h-.35Zm-.62-.38-.15,1.66.65.06v-.33l.66.06.12-1.33-1.31-.12Zm-1.79,1.17.65.06.1-1h.33l-.1,1h.33l.12-1.31-1.31-.12-.12,1.31Zm-.18-1.69,5.93.56-.19,2-3-.29v.32l-1.31-.12v-.32l-1.65-.16Z"/></g></g><g class="cls-100"><g class="cls-101"><g class="cls-17"><g class="cls-102"><g class="cls-103"><path d="M249.07,188.69s1.87,7.94.44,9.82.17,1.7,1.18,2.58-7.37.71-9.5,0,3.31,2.24,7,1.79-4.63,2.23-9,1.27,8.8,3.9,14.15,2.53,3.82-2.62,3.82-2.62l-2.46-16.32Z"/></g></g></g></g></g><g class="cls-100"><g class="cls-104"><g class="cls-17"><g class="cls-105"><g class="cls-106"><path d="M197.82,197.08s16.46-6,37.13,2.68c0,0-14-7.07-26.61-6.73,0,0,3.71.61,6.39,1.27C214.74,194.32,205.06,193.77,197.82,197.08Z"/></g></g></g></g></g><polygon class="cls-10" points="220.14 183.43 215.65 188.18 221.42 191.04 228.53 190.11 220.14 183.43"/><path class="cls-10" d="M250,136.22l-5.78,2.44,1.6,6.25,6.53,3.14A31.24,31.24,0,0,0,250,136.22Z"/><polygon class="cls-11" points="244.54 140.08 244.18 138.66 249.96 136.22 247.34 142.22 244.54 140.08"/><path class="cls-10" d="M211.56,129.08l4.53,4.35-3.75,5.28-7.22.58a31.24,31.24,0,0,1,6.44-10.2Z"/><polygon class="cls-11" points="215.23 134.63 216.08 133.44 211.56 129.08 211.85 135.62 215.23 134.63"/><g class="cls-107"><g class="cls-74"><path class="cls-10" d="M260,156.82c-3.78-13-14.28-24.69-28.67-27.37s-28.38,4.46-36.6,15.17-9.36,17-9.36,17,4.46,22.41,34.74,28,42.5-13.67,42.5-13.67S263.79,169.83,260,156.82Z"/></g></g><g class="cls-107"><g class="cls-108"><g class="cls-5"><g class="cls-109"><g class="cls-110"><path d="M179.1,157.48l6.31,4.17s15.55,28,55.45,28c34,0-60.88,6.25-60.88,6.25Z"/></g></g></g></g></g><ellipse class="cls-11" cx="226.15" cy="157.48" rx="5.59" ry="11.55" transform="translate(29.95 351.01) rotate(-79.46)"/><ellipse cx="225.47" cy="156.52" rx="5.57" ry="11.51" transform="translate(30.79 350.01) rotate(-79.59)"/><circle class="cls-80" cx="213.35" cy="148.79" r="2.52" transform="translate(27.78 331.06) rotate(-79.38)"/><circle cx="213.9" cy="148.43" r="1.88" transform="translate(28.85 331.57) rotate(-79.46)"/><circle class="cls-44" cx="214.15" cy="147.99" r="0.61" transform="translate(29.39 331.37) rotate(-79.43)"/><circle class="cls-80" cx="241.32" cy="154.01" r="2.52" transform="translate(45.39 362.74) rotate(-79.36)"/><circle cx="240.94" cy="153.46" r="1.88" transform="translate(45.99 362.26) rotate(-79.46)"/><circle class="cls-44" cx="240.87" cy="152.96" r="0.61" transform="translate(46.32 361.69) rotate(-79.43)"/><g class="cls-111"><g class="cls-17"><g class="cls-112"><g class="cls-113"><path d="M252.28,189.13s-4.46,5-23.76,4.52L227.25,192l-.25,1.22S224.27,191,221.4,191l4.21-.63,21.31-.62Z"/></g></g></g></g><g class="cls-114"><g class="cls-17"><g class="cls-115"><g class="cls-116"><path d="M200.15,184.44l-.19.68s8.24,6,14.18,5.92l1.13-1.3.64,1s3.12-1.3,5.28.21l-5.12-3.18Z"/></g></g></g></g><path class="cls-117" d="M223.84,190.52s-.89,3.49-.89,3.81l-2.2-.46.68-2.84,1.26-.63Z"/><circle class="cls-118" cx="222.35" cy="192.54" r="0.51"/><path class="cls-20" d="M216.56,187.22,217,187s3.38,1.1,4.41,4c0,0-4.15-2.25-5.51-1.2l-.94-1.48Zm4.85,3.82a4.72,4.72,0,0,1,3.83-1.91l1.79,1.6-.23,1.6a6,6,0,0,0-5.38-1.29Z"/><path class="cls-40" d="M246.31,180.91c-7.77,3.82-17.35,4.28-25.77,3.49a16.43,16.43,0,0,1,1.79,1.89c1.47,1.51,3,3,4.46,4.46s3,3,4.46,4.46c.37.37,1.41,1.79,1.89,1.79,8.43.79,18,.34,25.77-3.49-.3.15-5.72-5.85-6.25-6.37s-5.78-6.54-6.37-6.25Zm-52.67,7.8c4.42,3.57,10.36,5.36,15.81,6.41a15,15,0,0,0,1.87-1.84q2.21-2.25,4.4-4.53l4.36-4.56a14.82,14.82,0,0,1,1.79-1.93c-5.45-1.06-11.39-2.87-15.81-6.41-.54-.43-12.08,13.1-12.4,12.84Z"/><path class="cls-10" d="M121.5,122.72l-3.76,4.46,4,4.52,6.77-.19A29.21,29.21,0,0,0,121.5,122.72Z"/><polygon class="cls-11" points="118.66 128.24 117.75 127.22 121.5 122.72 121.9 128.81 118.66 128.24"/><path class="cls-10" d="M86.58,133.22l5.63,1.68-.89,6-5.75,3.57A29.21,29.21,0,0,1,86.58,133.22Z"/><polygon class="cls-11" points="91.99 136.26 92.19 134.9 86.58 133.22 89.61 138.53 91.99 136.26"/><g class="cls-119"><g class="cls-74"><path class="cls-10" d="M141.46,138.51c-9.16-10.71-25-15.17-38.05-11.24s-19.52,16.07-21.26,30a67.79,67.79,0,0,0,2.39,26.48c14,10.38,39.42,4.93,39.42,4.93s24.48-15.36,30.39-31.72C154.35,157,150.62,149.19,141.46,138.51Z"/></g></g><g class="cls-119"><g class="cls-120"><g class="cls-5"><g class="cls-121"><g class="cls-122"><path d="M79.54,142.58l8.26-2.91s-7.53,21.38,3.57,39c0,0,14.24,7.28,27.31,6.18l-27.91,6.65L80,186Z"/></g></g></g></g></g><ellipse class="cls-11" cx="133.18" cy="160.02" rx="10.79" ry="5.22" transform="translate(-40.45 45.14) rotate(-16.74)"/><ellipse cx="132.89" cy="159.05" rx="10.79" ry="5.22" transform="translate(-40.18 45.02) rotate(-16.74)"/><path class="cls-80" d="M120,157.47a2.35,2.35,0,1,1-1.14-1.39A2.35,2.35,0,0,1,120,157.47Z"/><circle cx="118.34" cy="158.42" r="1.76" transform="translate(-40.61 40.8) rotate(-16.74)"/><circle class="cls-44" cx="118.84" cy="158.62" r="0.57" transform="translate(-40.65 40.94) rotate(-16.74)"/><path class="cls-80" d="M138.68,151.76a2.35,2.35,0,1,0,.18-1.79A2.35,2.35,0,0,0,138.68,151.76Z"/><circle cx="140.88" cy="151.69" r="1.76" transform="translate(-37.72 47.01) rotate(-16.74)"/><circle class="cls-44" cx="140.4" cy="152.11" r="0.57" transform="translate(-37.86 46.88) rotate(-16.74)"/><g class="cls-123"><g class="cls-74"><path class="cls-11" d="M153.72,204.3s5.15,10.18-8.35,22.67H141s-22-1.92-24.2-18.58C116.84,208.38,139.77,192.39,153.72,204.3Z"/></g></g><g class="cls-123"><g class="cls-124"><g class="cls-5"><g class="cls-125"><g class="cls-126"><path d="M153.86,203.31c-.05.23,2.68,20.66-20.71,22Z"/></g></g></g></g></g><path class="cls-78" d="M150.11,225.85c0,1-2.42,1.17-4.85,1.16s-4.39.22-4.39-.72,2.42-2.53,4.85-2.53S150.12,224.87,150.11,225.85Z"/><path class="cls-80" d="M96,187.47c-.72,9.94-7.53,9.6-8.14,20-.36,6.19,10.43,20.88,36.51,19s31.52-15.44,28.26-28.92-15.09-27.23-15.09-27.23S96.74,177.52,96,187.47Z"/><g class="cls-127"><g class="cls-74"><path class="cls-10" d="M121.15,208.8c-2-8.58-14.28-11-14.28-11l-1.14-9.71s-10,2.39-12.23,6.05-6.25,6.66-5.57,14.44c1.47,16.73,14.28,19.28,14.28,19.28h6.31C120.24,221.61,121.74,211.14,121.15,208.8Z"/></g></g><g class="cls-127"><g class="cls-128"><g class="cls-5"><g class="cls-129"><g class="cls-130"><path d="M88,193.85l5.69,3.74s-6.58,18.48,8.51,29.88l-11.8.36-8.73-26.67Z"/></g></g></g></g></g><path class="cls-78" d="M111.85,227c0,1-2.54,1.17-5.07,1.16s-4.59.22-4.59-.72,2.52-2.51,5.1-2.51S111.85,226,111.85,227Z"/><g class="cls-131"><g class="cls-17"><g class="cls-132"><g class="cls-133"><path d="M88.5,202.23A69.24,69.24,0,0,1,95.64,201c1.13.05,1-.79,1-.79l-1.31-1Z"/></g></g></g></g><g class="cls-134"><g class="cls-74"><path class="cls-20" d="M96,183.29s-3.75,6.55-4.59,9.43-3.12,7.19-3.05,7.79-.35.61-.35,1a.89.89,0,0,0,.47.71s11.85-4.1,22.41-4.86,17-7.14,24.1-7.84,9.27.51,9.27.51.29-.74,0-1.06c0,0,.27-.64.12-.83a2,2,0,0,0-.57-.38s.16-5.59-8.44-15.48C135.38,172.29,110.74,173.19,96,183.29Z"/></g></g><g class="cls-134"><g class="cls-135"><g class="cls-17"><g class="cls-136"><g class="cls-137"><path d="M100.63,178.2l10-2.45-3.79,11.18c-.12.34,2.84,7.2,2.84,7.2l2.32,3.57L87.54,203l-1.87-4.46Z"/></g></g></g></g></g><g class="cls-138"><g class="cls-17"><g class="cls-139"><g class="cls-140"><path d="M88,193.85l.42,3.86s-.12,2.1,1.53,1.42,5.9-1.79,5.72-1.53-7.36,3.12-7.9,3.57S88,193.85,88,193.85Z"/></g></g></g></g><g class="cls-17"><g class="cls-141"><g class="cls-142"><path d="M107.09,173.38l-1.19,1.25,1.19,5.38,4-1.14Zm-11.31,28.5s9.4,14.42,23.58,13.26l.15.48,7.3-1.15s4.89.6,5.75.22l21.79-8.48a11.72,11.72,0,0,0-.35-1.27c-.48-1.38-1-3.57-1.54-3.79C151.69,200.77,95.78,201.89,95.78,201.89Z"/></g></g></g><rect class="cls-3" x="110.63" y="156.76" width="66.8" height="50.1" transform="matrix(0.96, -0.3, 0.3, 0.96, -47.26, 50.62)"/><rect class="cls-2" x="126.95" y="154.3" width="50.1" height="50.1" transform="translate(-46.17 52.86) rotate(-17.17)"/><path class="cls-4" d="M156.31,177.3l1.89,6.13,2.91-.89-1.42-4.61,1.46-.45,1.42,4.61,1.45-.45-1.42-4.59,1.45-.45,1.44,4.61,1.45-.45-1.89-6.13Zm-4,2.87,1.53-.47,1,3.15-1.53.47Zm-3.34-.6,2.41,7.73,2.89-.89-.49-1.55,2.94-.89-1.91-6.19Zm-5.36,8.4,2.91-.89-1.44-4.63,1.46-.46,1.44,4.59,1.45-.45-1.9-6.1-5.82,1.79,1.89,6.13Zm-3.87-7.25,26.32-8.14,2.87,9.28-13.17,4.07.46,1.49-5.85,1.79-.46-1.49L142.62,190Z"/><rect class="cls-9" x="141.47" y="154.64" width="13.15" height="12.52" transform="translate(-40.9 50.87) rotate(-17.17)"/><g class="cls-17"><g class="cls-143"><g class="cls-144"><path d="M108.37,179.68s3.57,1.62,6.6,6.78a.66.66,0,0,1,.17.68l1.17,2v.31s2.68,2.68,7.25,11.34,8.34,11,8.34,11L111.12,202Z"/></g></g></g><g class="cls-145"><g class="cls-74"><path class="cls-11" d="M136.57,215.61l-26.41-39.28L97,169.5l-6.82,3.78-1.39,20.15,5.13,13,8.68,7.84S128.92,223.17,136.57,215.61Z"/></g></g><g class="cls-146"><g class="cls-5"><g class="cls-147"><g class="cls-148"><path d="M132.65,219.53l.74-6.75s-37.33,1.46-38.87-30.54l-6.35.54,2.24,21S113.18,222.67,132.65,219.53Z"/></g></g></g></g><path class="cls-15" d="M113.83,184.62l3.12,5.53s-9.93,13.13-21.54,11.7c0,0-1.21-1.72-1.37-2C94,199.81,107.74,194.54,113.83,184.62Z"/><g class="cls-149"><g class="cls-17"><g class="cls-150"><g class="cls-151"><path d="M101.3,201.75s-2.36-2.59-2.68-3.77-4.64.57-4.64.57l-.37,1.13.89,2.86Z"/></g></g></g></g><path class="cls-31" d="M115.69,189.52S106.41,201.46,94.8,201a4.1,4.1,0,0,1-1.29,0c-.35-.3-9-17.31,2.46-23.9s19.64,10.71,19.64,10.71A5.35,5.35,0,0,1,115.69,189.52Z"/><g class="cls-152"><g class="cls-17"><g class="cls-153"><g class="cls-154"><path d="M100.91,200.86s-9.17-8.58-10.1-15.89-5.28,3.36-5.28,3.36l5.65,9.82,3.37,3.95Z"/></g></g></g></g><path class="cls-155" d="M116.94,123.42H84.17v.67s-.21,1.12.89,1.12h63.76a1.55,1.55,0,0,0,1.4-1.12v-.66Z"/><rect class="cls-156" x="86.85" y="122.53" width="59.81" height="2.68"/><g class="cls-17"><g class="cls-157"><g class="cls-158"><path d="M146.49,122.53H86.85v.89H84.17v.67s-.13.12.12.41c.05,0-.09-.18,0-.18h65.25c.08,0,.25.19.31.15a2.57,2.57,0,0,1,.37-.38v-.66h-3.57v-.89Z"/></g></g></g><path class="cls-159" d="M153.31,95c0-.18-.21-.2-.49-.2H81c-.29,0-.52,0-.49.2V95l3.24,29.1c0,.18.25.25.52.25h65.29c.27,0,.5-.09.52-.27L153.31,95h0Z"/><g class="cls-17"><g class="cls-160"><g class="cls-161"><path d="M119.17,108.25v2.68h1.93v-1.79h1v1.79H123v-1.79h1v1.79h1l.06-2.68Zm-3,.94h1v1.28h-1Zm-1.91-.94v3.57h1.91v-.89h2v-2.68Zm-4.78,2.68h1.92v-1.79h.94v1.79h1v-2.68h-3.9Zm-1.07-2.68H126l-.11,3.57H117.2v.89h-3.81v-.89h-4.84Z"/></g></g></g><path class="cls-44" d="M119.17,109.14v1.79h1.93v-1.79h1v1.79H123v-1.79h1v1.79h1l.06-1.79Zm-3,.17h1v1.28h-1Zm-1.92-.17v2.68h1.91v-.89h2v-1.79Zm-4.78,1.79h1.92v-1.79h.94v1.79h1v-1.79h-3.87Zm-1.07-2.68H126l-.11,3.57H117.2v.89h-3.81v-.89h-4.82Z"/><g class="cls-17"><g class="cls-162"><g class="cls-163"><path d="M84.26,124.32h65.29c.27,0,.5-.09.52-.27l3.22-29a.51.51,0,0,0-.48-.21H81a.52.52,0,0,0-.48.24L83.74,124C83.76,124.22,84,124.32,84.26,124.32Z"/></g></g></g><g class="cls-17"><g class="cls-164"><g class="cls-165"><path d="M116.94,125.21h30.67c-8.36-3.57-19.06-5.53-30.71-5.53s-22.32,2-30.71,5.53Z"/></g></g></g><path class="cls-10" d="M187.16,199.43s-2.42,2-4.3,2.25a4.18,4.18,0,0,1-2.85-.46Z"/></g></svg>